<?xml version="1.0" encoding="UTF-8" standalone="no"?>
<!DOCTYPE svg PUBLIC "-//W3C//DTD SVG 1.1//EN" "http://www.w3.org/Graphics/SVG/1.1/DTD/svg11.dtd">
<svg width="100%" height="100%" viewBox="0 0 24 24" version="1.1" xmlns="http://www.w3.org/2000/svg" xmlns:xlink="http://www.w3.org/1999/xlink" xml:space="preserve" xmlns:serif="http://www.serif.com/" style="fill-rule:evenodd;clip-rule:evenodd;stroke-linejoin:round;stroke-miterlimit:2;">
    <g transform="matrix(1,0,0,1,-2751,-482)">
        <g id="Artboard2" transform="matrix(7.26744,0,0,7.26744,-17245.8,-3024.25)">
            <rect x="2751.56" y="482.46" width="3.302" height="3.302" style="fill:none;"/>
            <clipPath id="_clip1">
                <rect x="2751.56" y="482.46" width="3.302" height="3.302"/>
            </clipPath>
            <g clip-path="url(#_clip1)">
                <g transform="matrix(0.0330129,0,0,0.0330129,2598.65,473.188)">
                    <path d="M4656.92,365.153C4664.98,365.153 4671.7,362.465 4676.31,357.857C4681.3,352.865 4683.32,346.817 4683.32,337.985L4683.32,296.609L4661.43,296.609L4661.43,338.369C4661.43,343.073 4658.93,346.145 4655.19,346.145C4651.54,346.145 4649.05,343.937 4646.45,340.289L4631.77,352.673C4636.66,359.969 4644.05,365.153 4656.92,365.153Z" style="fill:rgb(54,71,135);fill-rule:nonzero;"/>
                </g>
                <g transform="matrix(0.0336731,0,0,0.0336731,2594.71,472.992)">
                    <path d="M4690.33,363.809L4712.79,363.809L4712.79,344.609L4717.59,344.609L4730.26,363.809L4755.89,363.809L4740.25,340.961C4748.41,337.025 4753.49,330.209 4753.49,320.417L4753.49,320.225C4753.49,313.313 4751.38,308.321 4747.35,304.289C4742.65,299.585 4735.06,296.609 4723.16,296.609L4690.33,296.609L4690.33,363.809ZM4712.79,328.577L4712.79,315.425L4722.58,315.425C4727.77,315.425 4731.13,317.537 4731.13,321.857L4731.13,322.049C4731.13,326.177 4727.86,328.577 4722.49,328.577L4712.79,328.577Z" style="fill:rgb(54,71,135);fill-rule:nonzero;"/>
                </g>
            </g>
        </g>
    </g>
</svg>
