<?xml version="1.0" encoding="UTF-8" standalone="no"?><!DOCTYPE svg PUBLIC "-//W3C//DTD SVG 1.1//EN" "http://www.w3.org/Graphics/SVG/1.1/DTD/svg11.dtd"><svg width="100%" height="100%" viewBox="0 0 188 188" version="1.1" xmlns="http://www.w3.org/2000/svg" xmlns:xlink="http://www.w3.org/1999/xlink" xml:space="preserve" xmlns:serif="http://www.serif.com/" style="fill-rule:evenodd;clip-rule:evenodd;stroke-linejoin:round;stroke-miterlimit:2;"><rect id="Artboard7" x="0" y="0" width="187.5" height="187.5" style="fill:none;"/><clipPath id="_clip1"><rect x="0" y="0" width="187.5" height="187.5"/></clipPath><g clip-path="url(#_clip1)"><g><circle cx="74.193" cy="85.378" r="62.476" style="fill:none;"/><clipPath id="_clip2"><circle cx="74.193" cy="85.378" r="62.476"/></clipPath><g clip-path="url(#_clip2)"><path d="M22.872,124.71c3.437,-6.652 9.409,-13.796 17.765,-21.753l3.807,2.9c-3.959,-5.954 -7.143,-12.681 -8.883,-20.847c4.285,3.878 8.961,7.549 14.625,10.696c3.75,-3.296 7.704,-5.76 11.842,-8.158l-1.088,-13.233l11.783,8.883l2.519,-1.869l-7.051,-30.398c8.433,10.844 16.106,22.249 23.203,34.079l0,-8.882c8.878,-2.81 17.963,-4.859 27.373,-5.71l3.082,5.166l1.087,-4.622c3.918,-0.684 7.845,-1.104 11.783,-1.206c1.068,1.286 1.113,2.925 1.047,4.488l-9.419,0.978l-1.961,13.802l-8.157,-13.802c-6.868,0.964 -13.618,2.369 -20.212,4.35l-0,22.478l-18.944,-31.632l3.445,13.142l-7.795,5.257l-6.345,-4.532l0.363,6.526c-5.974,2.267 -11.359,6.221 -16.374,11.239l-5.923,-4.713l11.783,23.203l-15.227,-11.42c-5.742,5.404 -12.814,13.591 -15.046,19.759l-3.082,-4.169Z" style="fill:#364787;"/><path d="M25.238,115.161l-5.213,6.079c-12.912,-20.84 -11.992,-46.243 -1.186,-65.537c5.284,-9.434 12.9,-17.689 22.617,-23.591c8.7,-5.284 19.035,-8.671 30.723,-9.46c-11.366,1.681 -21.177,5.82 -29.321,11.595c-8.766,6.215 -15.53,14.359 -19.975,23.562c-8.513,17.626 -8.757,39.259 2.355,57.352Z" style="fill:#01adee;"/><path d="M38.301,101.379l-4.935,4.062c-5.494,-13.675 -6.632,-28.618 -3.138,-40.785c4.048,-14.099 12.866,-25.548 23.28,-30.584c-9.445,5.873 -16.745,17.649 -19.289,31.521c-2.066,11.271 -1.993,23.908 4.082,35.786Z" style="fill:#01adee;"/><path d="M127.482,78.841l9.036,-0.713c0.754,13.54 -1.316,25.92 -6.198,36.383c-0.851,1.824 -1.776,3.588 -2.828,5.266c-1.603,2.556 -3.375,4.934 -5.365,7.136c-2.492,2.759 -5.183,5.213 -8.175,7.388c-2.929,2.131 -6,3.904 -9.325,5.455c5.417,-4.554 9.64,-9.949 13.166,-16.022c1.346,-2.318 2.531,-4.705 3.646,-7.192c0.722,-1.61 1.4,-3.245 2.03,-4.924c1.516,-4.045 2.65,-8.323 3.395,-12.826c1.036,-6.258 1.297,-12.934 0.618,-19.951Z" style="fill:#01adee;"/><path d="M101.627,82.891l7.089,-1.562c1.713,11.813 0.986,23.137 -1.111,32.387c-1.916,8.449 -5.202,15.233 -8.923,19.36l-0.836,-0.663c3.018,-4.332 5.318,-11.095 6.121,-19.286c0.867,-8.845 0.635,-19.453 -2.34,-30.236Z" style="fill:#01adee;"/><path d="M128.942,105.351l-1.068,7.538c-13.108,-2.55 -24.761,-1.984 -35.414,0.977c-11.798,3.278 -22.297,9.352 -32.064,17.188c9.116,-8.998 19.198,-16.225 30.858,-20.799c11.042,-4.331 23.42,-6.183 37.688,-4.904Z" style="fill:#01adee;"/><path d="M16.816,89.024l-6.25,-3.676c9.328,-14.486 20.445,-24.758 33.163,-31.543c13.066,-6.97 27.721,-10.265 43.677,-10.669c-15.553,1.656 -29.632,5.956 -41.842,13.797c-11.419,7.331 -21.095,17.791 -28.748,32.091Z" style="fill:#01adee;"/><path d="M85.901,131.918c4.399,-1.664 8.67,-2.175 11.683,-1.637c2.908,0.52 4.735,2.098 5.366,3.982c0.423,1.905 -0.155,4.179 -2.322,6.108c-1.679,1.494 -4.203,2.779 -7.235,3.872c-1.018,0.368 -2.068,0.774 -3.186,1.087c-4.246,1.649 -8.365,2.177 -11.292,1.709c-2.644,-0.423 -4.343,-1.775 -4.961,-3.467c-0.568,-1.735 0.027,-3.848 1.859,-5.85c2.036,-2.225 5.668,-4.413 10.088,-5.804Zm1.002,3.121c-2.54,0.835 -4.776,1.963 -6.508,3.191c-1.263,0.896 -2.244,1.837 -2.823,2.767c-0.344,0.553 -0.58,1.066 -0.429,1.551c0.144,0.5 0.602,0.837 1.205,1.124c1.018,0.486 2.364,0.832 3.957,0.915c2.179,0.114 4.73,-0.158 7.39,-0.851c0.977,-0.352 1.923,-0.714 2.783,-1.17c1.423,-0.754 2.596,-1.684 3.617,-2.59c0.966,-0.856 1.658,-1.759 2.179,-2.598c0.401,-0.645 0.598,-1.233 0.386,-1.738c-0.109,-0.343 -0.487,-0.502 -0.91,-0.689c-0.955,-0.423 -2.219,-0.676 -3.694,-0.731c-2.11,-0.079 -4.579,0.147 -7.153,0.819Z" style="fill:#01adee;"/></g><g><path d="M77.049,39.981c1.533,0 2.811,-0.511 3.687,-1.387c0.949,-0.949 1.332,-2.098 1.332,-3.777l-0,-7.866l-4.161,0l-0,7.939c-0,0.894 -0.474,1.478 -1.186,1.478c-0.694,-0 -1.168,-0.42 -1.661,-1.113l-2.792,2.354c0.931,1.387 2.336,2.372 4.781,2.372Z" style="fill:#364787;fill-rule:nonzero;"/><path d="M83.4,39.726l4.27,-0l0,-3.65l0.913,-0l2.409,3.65l4.872,-0l-2.974,-4.343c1.551,-0.749 2.518,-2.044 2.518,-3.906l0,-0.036c0,-1.314 -0.401,-2.263 -1.168,-3.03c-0.894,-0.894 -2.336,-1.46 -4.599,-1.46l-6.241,0l0,12.775Zm4.27,-6.698l0,-2.5l1.862,0c0.985,0 1.624,0.402 1.624,1.223l-0,0.036c-0,0.785 -0.621,1.241 -1.642,1.241l-1.844,0Z" style="fill:#364787;fill-rule:nonzero;"/><path d="M101.084,39.726l4.179,-0l-0,-6.333l2.938,4.544l0.073,0l2.938,-4.544l-0,6.333l4.252,-0l0,-12.775l-4.453,0l-2.737,4.49l-2.738,-4.49l-4.452,0l-0,12.775Z" style="fill:#364787;fill-rule:nonzero;"/><path d="M128.152,38.477c-1.204,0.953 -2.762,1.523 -4.493,1.523c-3.942,-0 -6.953,-2.92 -6.953,-6.625l-0,-0.036c-0,-3.705 3.047,-6.661 6.989,-6.661c1.74,-0 3.298,0.568 4.497,1.522c-0.105,0.096 -0.206,0.194 -0.305,0.295c-0.787,0.811 -1.373,1.801 -1.691,2.904c-0.057,0.197 -0.106,0.397 -0.145,0.601c-0.417,-0.897 -1.262,-1.545 -2.392,-1.545c-1.624,0 -2.646,1.351 -2.646,2.847l-0,0.037c-0,1.514 1.04,2.883 2.682,2.883c1.112,-0 1.941,-0.632 2.354,-1.511c0.191,-0.406 0.292,-0.864 0.292,-1.336l0,-0.036c0,-0.477 0.051,-0.94 0.147,-1.387c0.263,-1.222 0.868,-2.316 1.722,-3.186c0.098,-0.101 0.2,-0.198 0.305,-0.292c0.105,-0.094 0.213,-0.185 0.324,-0.273c1.204,-0.953 2.763,-1.523 4.494,-1.523c3.944,-0 6.956,2.92 6.956,6.624l0,0.037c0,3.704 -3.049,6.661 -6.992,6.661c-1.74,-0 -3.299,-0.569 -4.498,-1.523c0.105,-0.095 0.206,-0.194 0.305,-0.295c0.787,-0.811 1.373,-1.801 1.691,-2.904c0.057,-0.197 0.106,-0.397 0.145,-0.601c0.418,0.897 1.263,1.545 2.393,1.545c1.625,-0 2.648,-1.35 2.648,-2.847l-0,-0.036c-0,-1.515 -1.041,-2.884 -2.684,-2.884c-1.112,0 -1.942,0.633 -2.355,1.512c-0.19,0.405 -0.292,0.863 -0.292,1.335l-0,0.037c-0,0.476 -0.051,0.939 -0.147,1.386c-0.263,1.222 -0.868,2.316 -1.722,3.187c-0.098,0.1 -0.2,0.197 -0.305,0.291c-0.105,0.094 -0.213,0.186 -0.324,0.274Z" style="fill:#364787;"/><path d="M144.888,39.817l4.088,0l5.183,-12.866l-4.709,0l-2.482,7.172l-2.482,-7.172l-4.781,0l5.183,12.866Z" style="fill:#364787;fill-rule:nonzero;"/><rect x="154.724" y="26.951" width="4.27" height="12.774" style="fill:#364787;fill-rule:nonzero;"/><path d="M160.491,39.726l4.234,-0l-0,-5.895l4.745,5.895l3.796,-0l-0,-12.775l-4.234,0l-0,5.639l-4.544,-5.639l-3.997,0l0,12.775Z" style="fill:#364787;fill-rule:nonzero;"/><path d="M181.605,40c2.318,-0 4.253,-0.785 5.64,-1.917l-0,-5.912l-6.187,-0l0,2.737l2.19,0l-0,1.277c-0.329,0.183 -0.73,0.292 -1.46,0.292c-1.788,0 -3.048,-1.24 -3.048,-3.047l0,-0.037c0,-1.733 1.205,-3.011 2.865,-3.011c1.059,0 1.99,0.402 2.829,1.113l2.391,-2.883c-1.387,-1.204 -3.157,-1.934 -5.347,-1.934c-4.033,-0 -7.044,2.847 -7.044,6.661l-0,0.036c-0,3.96 3.193,6.625 7.171,6.625Z" style="fill:#364787;fill-rule:nonzero;"/><path d="M88.589,61.479l10.274,-0l0,-3.65l-6.004,0l0,-9.125l-4.27,0l-0,12.775Z" style="fill:#364787;fill-rule:nonzero;"/><path d="M105.725,61.753c3.942,-0 6.989,-2.957 6.989,-6.661l0,-0.037c0,-3.704 -3.011,-6.624 -6.953,-6.624c-3.941,-0 -6.989,2.956 -6.989,6.661l0,0.036c0,3.705 3.011,6.625 6.953,6.625Zm0.036,-3.778c-1.642,0 -2.682,-1.369 -2.682,-2.883l-0,-0.037c-0,-1.496 1.022,-2.847 2.646,-2.847c1.642,0 2.683,1.369 2.683,2.884l-0,0.036c-0,1.497 -1.022,2.847 -2.647,2.847Z" style="fill:#364787;fill-rule:nonzero;"/><path d="M120.762,61.753c2.318,-0 4.252,-0.785 5.639,-1.917l0,-5.912l-6.186,-0l-0,2.737l2.19,0l-0,1.278c-0.329,0.182 -0.73,0.292 -1.46,0.292c-1.789,-0 -3.048,-1.241 -3.048,-3.048l0,-0.037c0,-1.733 1.205,-3.011 2.865,-3.011c1.059,0 1.99,0.402 2.829,1.113l2.391,-2.883c-1.387,-1.204 -3.157,-1.934 -5.347,-1.934c-4.033,-0 -7.045,2.847 -7.045,6.661l0,0.036c0,3.96 3.194,6.625 7.172,6.625Z" style="fill:#364787;fill-rule:nonzero;"/><rect x="127.679" y="48.704" width="4.27" height="12.774" style="fill:#364787;fill-rule:nonzero;"/><path d="M138.939,61.716c3.431,0 5.639,-1.642 5.639,-4.325l-0,-0.036c-0,-2.574 -2.19,-3.523 -5.457,-4.125c-1.35,-0.255 -1.697,-0.474 -1.697,-0.821l-0,-0.036c-0,-0.311 0.292,-0.53 0.931,-0.53c1.186,0 2.628,0.384 3.832,1.259l2.08,-2.883c-1.478,-1.168 -3.303,-1.752 -5.766,-1.752c-3.522,0 -5.42,1.88 -5.42,4.307l-0,0.037c-0,2.7 2.518,3.522 5.383,4.106c1.369,0.273 1.77,0.474 1.77,0.839l0,0.037c0,0.346 -0.328,0.547 -1.095,0.547c-1.496,0 -3.084,-0.438 -4.471,-1.496l-2.281,2.719c1.624,1.423 3.96,2.153 6.552,2.153Z" style="fill:#364787;fill-rule:nonzero;"/><path d="M148.374,61.479l4.27,-0l-0,-9.161l3.759,-0l0,-3.614l-11.789,0l0,3.614l3.76,-0l-0,9.161Z" style="fill:#364787;fill-rule:nonzero;"/><rect x="157.407" y="48.704" width="4.27" height="12.774" style="fill:#364787;fill-rule:nonzero;"/><path d="M169.506,61.753c3.176,-0 4.964,-1.552 6.041,-3.449l-3.522,-1.99c-0.53,0.949 -1.205,1.606 -2.409,1.606c-1.405,0 -2.391,-1.168 -2.391,-2.828l0,-0.037c0,-1.533 0.949,-2.792 2.391,-2.792c1.168,0 1.843,0.639 2.317,1.551l3.522,-2.062c-1.076,-1.953 -2.974,-3.321 -5.785,-3.321c-3.814,-0 -6.788,2.847 -6.788,6.661l-0,0.036c-0,3.96 3.084,6.625 6.624,6.625Z" style="fill:#364787;fill-rule:nonzero;"/><path d="M181.861,61.716c3.431,0 5.639,-1.642 5.639,-4.325l-0,-0.036c-0,-2.574 -2.19,-3.523 -5.457,-4.125c-1.35,-0.255 -1.697,-0.474 -1.697,-0.821l0,-0.036c0,-0.311 0.292,-0.53 0.931,-0.53c1.186,0 2.628,0.384 3.832,1.259l2.081,-2.883c-1.478,-1.168 -3.303,-1.752 -5.767,-1.752c-3.522,0 -5.42,1.88 -5.42,4.307l-0,0.037c-0,2.7 2.518,3.522 5.383,4.106c1.369,0.273 1.771,0.474 1.771,0.839l-0,0.037c-0,0.346 -0.329,0.547 -1.095,0.547c-1.497,0 -3.084,-0.438 -4.471,-1.496l-2.282,2.719c1.625,1.423 3.961,2.153 6.552,2.153Z" style="fill:#364787;fill-rule:nonzero;"/></g><g><path d="M-0,110.653l1.843,5.151l1.433,-0.513l-1.278,-3.574l5.735,-2.052l-0.564,-1.577l-7.169,2.565Z" style="fill:#364787;fill-rule:nonzero;"/><path d="M4.27,121.454c1.042,2.106 3.388,2.851 5.328,1.892l0.019,-0.01c1.941,-0.959 2.763,-3.247 1.722,-5.353c-1.041,-2.106 -3.387,-2.851 -5.328,-1.891l-0.019,0.009c-1.94,0.959 -2.763,3.247 -1.722,5.353Zm1.394,-0.665c-0.597,-1.209 -0.046,-2.549 1.124,-3.128l0.019,-0.009c1.17,-0.579 2.54,-0.213 3.138,0.996c0.598,1.209 0.047,2.549 -1.123,3.128l-0.02,0.009c-1.17,0.579 -2.54,0.213 -3.138,-0.996Z" style="fill:#364787;fill-rule:nonzero;"/><path d="M9.775,130.861c0.781,1.153 1.835,1.74 2.823,2.017l2.738,-1.854l-1.853,-2.738l-1.198,0.811l0.945,1.396l-0.901,0.61c-0.49,-0.181 -0.921,-0.546 -1.262,-1.05c-0.756,-1.117 -0.446,-2.483 0.707,-3.263l0.018,-0.012c1.072,-0.726 2.506,-0.528 3.189,0.481c0.494,0.729 0.552,1.32 0.476,2.081l1.645,0.16c0.114,-1.035 -0.043,-1.927 -0.812,-3.062c-1.292,-1.909 -3.705,-2.312 -5.498,-1.098l-0.018,0.012c-1.864,1.262 -2.328,3.546 -0.999,5.509Z" style="fill:#364787;fill-rule:nonzero;"/><path d="M13.786,136.029l1.083,1.278l5.809,-4.92l-1.082,-1.279l-5.81,4.921Zm6.372,-5.183l0.815,0.963l1.786,0.426l-0.448,-1.488l-2.153,0.099Z" style="fill:#364787;fill-rule:nonzero;"/><path d="M18.912,141.855c1.157,1.166 2.571,1.388 3.644,0.324l0.016,-0.016c0.942,-0.934 0.724,-1.942 -0.078,-3.322c-0.686,-1.172 -0.8,-1.519 -0.445,-1.871l0.015,-0.016c0.263,-0.26 0.709,-0.227 1.161,0.229c0.452,0.455 0.718,1.126 0.86,1.934l1.509,-0.27c-0.103,-0.985 -0.522,-1.902 -1.303,-2.69c-1.095,-1.105 -2.525,-1.25 -3.506,-0.277l-0.016,0.015c-1.073,1.064 -0.678,2.066 0.124,3.431c0.664,1.133 0.693,1.472 0.392,1.77l-0.016,0.016c-0.317,0.314 -0.801,0.211 -1.283,-0.275c-0.613,-0.618 -0.863,-1.381 -0.944,-2.266l-1.538,0.132c0.063,1.223 0.597,2.333 1.408,3.152Z" style="fill:#364787;fill-rule:nonzero;"/><path d="M24.505,146.811l1.302,1.053l3.817,-4.718l1.801,1.458l0.972,-1.201l-4.904,-3.968l-0.971,1.2l1.8,1.458l-3.817,4.718Z" style="fill:#364787;fill-rule:nonzero;"/><path d="M29.973,150.942l1.39,0.934l4.248,-6.317l-1.389,-0.935l-4.249,6.318Z" style="fill:#364787;fill-rule:nonzero;"/><path d="M37.334,155.57c1.292,0.699 2.305,0.653 3.392,0.289l-0.425,-1.454c-0.785,0.194 -1.419,0.246 -2.185,-0.167c-1.148,-0.621 -1.425,-2.007 -0.804,-3.155l0.01,-0.019c0.621,-1.149 1.941,-1.647 3.07,-1.036c0.67,0.362 1.041,0.933 1.304,1.681l1.522,-0.574c-0.291,-0.948 -0.819,-1.778 -2.082,-2.461c-2.057,-1.112 -4.335,-0.328 -5.365,1.576l-0.01,0.019c-1.04,1.923 -0.398,4.236 1.573,5.301Z" style="fill:#364787;fill-rule:nonzero;"/><path d="M42.268,157.956l1.593,0.613l1.263,-1.345l3.005,1.156l0.037,1.843l1.634,0.629l-0.294,-8.328l-1.441,-0.555l-5.797,5.987Zm3.945,-1.898l1.83,-1.941l0.058,2.667l-1.888,-0.726Z" style="fill:#364787;fill-rule:nonzero;"/><path d="M58.086,162.992l5.718,0.954l0.245,-1.47l-4.077,-0.68l0.264,-1.577l3.54,0.591l0.245,-1.47l-3.54,-0.591l0.254,-1.523l4.023,0.671l0.245,-1.47l-5.664,-0.945l-1.253,7.51Z" style="fill:#364787;fill-rule:nonzero;"/><path d="M66.913,164.301l1.652,0.072l0.213,-4.835l3.47,4.998l1.424,0.062l0.335,-7.606l-1.652,-0.073l-0.206,4.684l-3.358,-4.841l-1.543,-0.067l-0.335,7.606Z" style="fill:#364787;fill-rule:nonzero;"/><path d="M83.684,163.985l1.616,-0.289l-0.87,-4.861l2.655,2.795l0.043,-0.007l1.536,-3.579l0.876,4.893l1.638,-0.294l-1.342,-7.494l-1.777,0.318l-1.402,3.522l-2.538,-2.817l-1.777,0.319l1.342,7.494Z" style="fill:#364787;fill-rule:nonzero;"/><path d="M98.179,160.714c2.229,-0.742 3.289,-2.964 2.606,-5.017l-0.007,-0.021c-0.684,-2.054 -2.836,-3.183 -5.066,-2.441c-2.229,0.742 -3.289,2.964 -2.605,5.018l0.007,0.02c0.683,2.054 2.836,3.183 5.065,2.441Zm-0.467,-1.472c-1.28,0.426 -2.532,-0.304 -2.944,-1.542l-0.007,-0.021c-0.412,-1.239 0.139,-2.545 1.419,-2.971c1.279,-0.426 2.531,0.303 2.943,1.542l0.007,0.02c0.412,1.239 -0.139,2.546 -1.418,2.972Z" style="fill:#364787;fill-rule:nonzero;"/><path d="M106.648,157.246l1.332,-0.643l-0.562,-8.244l-1.626,0.785l0.539,5.694l-4.124,-3.963l-1.665,0.804l6.106,5.567Z" style="fill:#364787;fill-rule:nonzero;"/><path d="M113.119,153.751l1.431,-0.87l-3.956,-6.506l-1.431,0.871l3.956,6.505Z" style="fill:#364787;fill-rule:nonzero;"/><path d="M117.518,151.043l1.307,-0.995l-2.994,-3.928l3.639,1.275l0.034,-0.026l-0.267,-3.886l3.013,3.954l1.324,-1.009l-4.615,-6.055l-1.436,1.094l0.359,3.774l-3.543,-1.348l-1.436,1.095l4.615,6.055Z" style="fill:#364787;fill-rule:nonzero;"/><path d="M126.127,144.059l1.219,-1.148l-5.221,-5.542l-1.219,1.149l5.221,5.541Z" style="fill:#364787;fill-rule:nonzero;"/><path d="M129.796,140.516l3.836,-4.346l-1.117,-0.986l-2.735,3.099l-1.199,-1.058l2.376,-2.691l-1.117,-0.986l-2.376,2.69l-1.158,-1.022l2.7,-3.057l-1.117,-0.987l-3.801,4.306l5.708,5.038Z" style="fill:#364787;fill-rule:nonzero;"/><path d="M135.581,133.721l0.937,-1.362l-3.989,-2.742l6.077,-0.296l0.807,-1.175l-6.274,-4.312l-0.936,1.362l3.863,2.655l-5.884,0.285l-0.875,1.273l6.274,4.312Z" style="fill:#364787;fill-rule:nonzero;"/><path d="M141.988,123.559l0.773,-1.486l-5.384,-2.801l1.069,-2.055l-1.37,-0.713l-2.911,5.596l1.37,0.713l1.069,-2.055l5.384,2.801Z" style="fill:#364787;fill-rule:nonzero;"/><path d="M146.329,114.242c0.821,-2.201 -0.244,-4.421 -2.272,-5.177l-0.021,-0.007c-2.028,-0.756 -4.257,0.212 -5.078,2.413c-0.821,2.201 0.244,4.421 2.272,5.177l0.021,0.007c2.028,0.756 4.257,-0.212 5.078,-2.413Zm-1.44,-0.56c-0.471,1.264 -1.824,1.781 -3.047,1.325l-0.021,-0.008c-1.222,-0.456 -1.894,-1.704 -1.423,-2.968c0.471,-1.264 1.824,-1.781 3.047,-1.325l0.021,0.008c1.223,0.456 1.895,1.704 1.423,2.968Z" style="fill:#364787;fill-rule:nonzero;"/></g></g></g></svg>