<?xml version="1.0" encoding="UTF-8" standalone="no"?>
<!DOCTYPE svg PUBLIC "-//W3C//DTD SVG 1.1//EN" "http://www.w3.org/Graphics/SVG/1.1/DTD/svg11.dtd">
<svg width="100%" height="100%" viewBox="0 0 211 159" version="1.1" xmlns="http://www.w3.org/2000/svg" xmlns:xlink="http://www.w3.org/1999/xlink" xml:space="preserve" xmlns:serif="http://www.serif.com/" style="fill-rule:evenodd;clip-rule:evenodd;stroke-linejoin:round;stroke-miterlimit:2;">
    <g transform="matrix(1,0,0,1,-8794,-6876)">
        <g id="Artboard7" transform="matrix(1,0,0,1,-0.172478,-0.169436)">
            <rect x="8794.17" y="6876.17" width="210.213" height="158.36" style="fill:none;"/>
            <g transform="matrix(0.229308,0,0,0.407659,8679.14,6735.21)">
                <g>
                    <g transform="matrix(1.08964,0,0,0.612922,-3253.24,-427.164)">
                        <g transform="matrix(1.09471,0,0,1.12498,1550.6,299.366)">
                            <path d="M1759.68,1337.08L1832.34,1337.08L1832.34,1320.95L1777.59,1320.95L1777.59,1204.26L1759.68,1204.26L1759.68,1337.08Z" style="fill:white;fill-rule:nonzero;"/>
                            <path d="M1882.95,1338.81C1914.77,1338.81 1937.26,1315.05 1937.26,1286.68L1937.26,1286.39C1937.26,1258.02 1915.06,1234.55 1883.25,1234.55C1851.43,1234.55 1828.94,1258.31 1828.94,1286.68L1828.94,1286.97C1828.94,1315.33 1851.13,1338.81 1882.95,1338.81ZM1883.25,1322.53C1862.67,1322.53 1848.03,1306.26 1848.03,1286.68L1848.03,1286.39C1848.03,1266.81 1862.38,1250.82 1882.95,1250.82C1903.52,1250.82 1918.17,1267.09 1918.17,1286.68L1918.17,1286.97C1918.17,1306.55 1903.81,1322.53 1883.25,1322.53Z" style="fill:white;fill-rule:nonzero;"/>
                            <path d="M1996.6,1338.81C2014.95,1338.81 2029.6,1331.61 2039.81,1323.11L2039.81,1280.77L1995.71,1280.77L1995.71,1296.18L2022.2,1296.18L2022.2,1315.05C2015.84,1319.65 2006.96,1322.68 1997.19,1322.68C1976.03,1322.68 1961.97,1307.41 1961.97,1286.68L1961.97,1286.39C1961.97,1267.09 1976.47,1250.82 1995.56,1250.82C2008.73,1250.82 2016.58,1255 2024.57,1261.62L2036.11,1248.23C2025.45,1239.45 2014.36,1234.55 1996.3,1234.55C1965.08,1234.55 1942.88,1258.45 1942.88,1286.68L1942.88,1286.97C1942.88,1316.34 1964.19,1338.81 1996.6,1338.81Z" style="fill:white;fill-rule:nonzero;"/>
                            <rect x="2054.16" y="1236.28" width="18.202" height="100.8" style="fill:white;fill-rule:nonzero;"/>
                            <path d="M2125.93,1338.52C2147.69,1338.52 2162.93,1327.29 2162.93,1308.42L2162.93,1308.13C2162.93,1291.43 2151.53,1283.8 2129.63,1278.61C2109.8,1274.01 2105.07,1270.55 2105.07,1262.77L2105.07,1262.49C2105.07,1255.86 2111.28,1250.53 2121.94,1250.53C2131.41,1250.53 2140.73,1254.13 2150.05,1260.9L2159.82,1247.51C2149.31,1239.3 2137.33,1234.84 2122.23,1234.84C2101.66,1234.84 2086.87,1246.79 2086.87,1264.07L2086.87,1264.36C2086.87,1282.93 2099.3,1289.27 2121.35,1294.45C2140.58,1298.77 2144.73,1302.66 2144.73,1309.86L2144.73,1310.15C2144.73,1317.78 2137.62,1322.82 2126.38,1322.82C2113.5,1322.82 2103.59,1318.07 2093.67,1309.72L2082.72,1322.39C2095.15,1333.19 2110.1,1338.52 2125.93,1338.52Z" style="fill:white;fill-rule:nonzero;"/>
                            <path d="M2203.18,1337.08L2221.53,1337.08L2221.53,1252.69L2254.38,1252.69L2254.38,1236.28L2170.33,1236.28L2170.33,1252.69L2203.18,1252.69L2203.18,1337.08Z" style="fill:white;fill-rule:nonzero;"/>
                            <rect x="2267.26" y="1236.28" width="18.202" height="100.8" style="fill:white;fill-rule:nonzero;"/>
                            <path d="M2344.95,1338.81C2364.33,1338.81 2376.17,1331.89 2386.97,1320.95L2375.28,1309.43C2366.4,1317.49 2358.26,1322.53 2345.54,1322.53C2325.71,1322.53 2311.35,1306.41 2311.35,1286.68L2311.35,1286.39C2311.35,1266.66 2325.71,1250.82 2345.54,1250.82C2357.38,1250.82 2366.25,1255.86 2374.54,1263.35L2386.23,1250.25C2376.32,1241.03 2364.78,1234.55 2345.68,1234.55C2314.31,1234.55 2292.26,1258.02 2292.26,1286.68L2292.26,1286.97C2292.26,1315.91 2314.76,1338.81 2344.95,1338.81Z" style="fill:white;fill-rule:nonzero;"/>
                            <path d="M2433.44,1338.52C2455.19,1338.52 2470.43,1327.29 2470.43,1308.42L2470.43,1308.13C2470.43,1291.43 2459.04,1283.8 2437.14,1278.61C2417.31,1274.01 2412.57,1270.55 2412.57,1262.77L2412.57,1262.49C2412.57,1255.86 2418.79,1250.53 2429.44,1250.53C2438.91,1250.53 2448.24,1254.13 2457.56,1260.9L2467.33,1247.51C2456.82,1239.3 2444.83,1234.84 2429.74,1234.84C2409.17,1234.84 2394.37,1246.79 2394.37,1264.07L2394.37,1264.36C2394.37,1282.93 2406.8,1289.27 2428.85,1294.45C2448.09,1298.77 2452.23,1302.66 2452.23,1309.86L2452.23,1310.15C2452.23,1317.78 2445.13,1322.82 2433.88,1322.82C2421.01,1322.82 2411.09,1318.07 2401.18,1309.72L2390.23,1322.39C2402.66,1333.19 2417.6,1338.52 2433.44,1338.52Z" style="fill:white;fill-rule:nonzero;"/>
                        </g>
                        <g transform="matrix(1,0,0,1,1432.92,83.7684)">
                            <g transform="matrix(1.09471,0,0,1.12498,117.683,81.4876)">
                                <path d="M1759.68,1337.08L1777.59,1337.08L1777.59,1265.08L1809.99,1312.31L1810.59,1312.31L1843.29,1264.79L1843.29,1337.08L1861.49,1337.08L1861.49,1236.28L1842.11,1236.28L1810.59,1283.94L1779.07,1236.28L1759.68,1236.28L1759.68,1337.08Z" style="fill:white;fill-rule:nonzero;"/>
                                <path d="M2136.44,1337.8L2152.42,1337.8L2195.49,1236.28L2175.8,1236.28L2144.73,1313.75L2113.5,1236.28L2093.38,1236.28L2136.44,1337.8Z" style="fill:white;fill-rule:nonzero;"/>
                                <rect x="2208.36" y="1236.28" width="18.202" height="100.8" style="fill:white;fill-rule:nonzero;"/>
                                <path d="M2245.35,1337.08L2263.26,1337.08L2263.26,1265.37L2320.38,1337.08L2335.62,1337.08L2335.62,1236.28L2317.72,1236.28L2317.72,1305.97L2262.22,1236.28L2245.35,1236.28L2245.35,1337.08Z" style="fill:white;fill-rule:nonzero;"/>
                                <path d="M2396.59,1338.81C2414.94,1338.81 2429.59,1331.61 2439.8,1323.11L2439.8,1280.77L2395.7,1280.77L2395.7,1296.18L2422.19,1296.18L2422.19,1315.05C2415.83,1319.65 2406.95,1322.68 2397.18,1322.68C2376.02,1322.68 2361.96,1307.41 2361.96,1286.68L2361.96,1286.39C2361.96,1267.09 2376.47,1250.82 2395.55,1250.82C2408.72,1250.82 2416.57,1255 2424.56,1261.62L2436.1,1248.23C2425.45,1239.45 2414.35,1234.55 2396.3,1234.55C2365.07,1234.55 2342.87,1258.45 2342.87,1286.68L2342.87,1286.97C2342.87,1316.34 2364.18,1338.81 2396.59,1338.81Z" style="fill:white;fill-rule:nonzero;"/>
                            </g>
                            <g transform="matrix(1,0,0,1,-3.58947,316.065)">
                                <path d="M2226.68,1271.55C2226.62,1271.55 2226.57,1271.55 2226.51,1271.55C2221.69,1271.55 2217.06,1271.04 2212.68,1270.08C2185.41,1264.12 2167.39,1240.72 2167.39,1213.23L2167.39,1212.91C2167.39,1180.99 2192.01,1154.26 2226.84,1154.26C2251.41,1154.26 2270.74,1167.41 2279.99,1186.35C2277.75,1189.54 2275.56,1192.78 2273.41,1196.04C2270.53,1200.39 2267.73,1204.75 2264.9,1208.96C2263.11,1188.73 2247.67,1172.57 2226.51,1172.57C2204,1172.57 2188.28,1190.55 2188.28,1212.58L2188.28,1212.91C2188.28,1230.05 2197.99,1244.93 2212.91,1250.7C2217.12,1252.32 2221.74,1253.22 2226.68,1253.24C2226.73,1253.24 2226.78,1253.24 2226.84,1253.24C2228.64,1253.24 2230.41,1253.13 2232.12,1252.9C2256.15,1249.84 2270,1226.6 2285.29,1203.45C2292.76,1192.14 2300.57,1180.86 2310.08,1171.95C2318.27,1164.28 2327.72,1158.38 2339.3,1155.75C2343.66,1154.79 2348.25,1154.28 2353.03,1154.26C2353.09,1154.26 2353.14,1154.26 2353.2,1154.26C2358.02,1154.26 2362.65,1154.77 2367.03,1155.73C2394.29,1161.69 2412.32,1185.09 2412.32,1212.58L2412.32,1212.91C2412.32,1244.82 2387.7,1271.55 2352.87,1271.55C2328.6,1271.55 2309.45,1258.73 2300.06,1240.16C2302.47,1236.72 2304.81,1233.21 2307.1,1229.68C2309.74,1225.63 2312.3,1221.56 2314.89,1217.62C2316.99,1237.49 2332.31,1253.24 2353.2,1253.24C2375.71,1253.24 2391.43,1235.26 2391.43,1213.23L2391.43,1212.91C2391.43,1195.76 2381.72,1180.88 2366.8,1175.12C2362.59,1173.49 2357.97,1172.59 2353.03,1172.57C2352.98,1172.57 2352.93,1172.57 2352.87,1172.57C2351.07,1172.57 2349.32,1172.68 2347.61,1172.91C2323.28,1176 2309.86,1199.82 2294.56,1223.28C2278.7,1247.61 2260.83,1271.55 2226.68,1271.55Z" style="fill:white;"/>
                            </g>
                        </g>
                    </g>
                    <g transform="matrix(3.63637,0,0,2.04546,536.807,353.477)">
                        <path d="M79.784,47.126L79.784,41.445C75.495,42.003 72.876,44.253 72.501,48.778L72.501,66.522C72.501,68.732 70.71,70.522 68.501,70.522L47.423,70.522C45.214,70.522 43.424,68.732 43.423,66.522L43.424,59.984C40.996,57.675 38.568,57.546 36.14,59.984L36.14,66.522C36.14,68.732 34.349,70.522 32.14,70.522L11.063,70.522C8.854,70.522 7.063,68.732 7.063,66.522L7.063,45.445C7.063,43.236 8.854,41.445 11.063,41.445L32.14,41.445C34.349,41.445 36.14,43.236 36.14,45.445L36.14,51.984C37.297,54.747 42.152,54.807 43.424,51.984L43.424,45.445C43.424,43.236 45.214,41.445 47.423,41.445L66.35,41.445C70.721,41.349 73.946,39.827 75.635,36.394L4.033,36.394C2.963,36.394 1.937,35.969 1.181,35.213C0.425,34.456 -0,33.431 -0,32.361L-0,4.033C-0,2.963 0.425,1.938 1.181,1.181C1.937,0.425 2.963,-0 4.033,-0L104.915,0C104.665,0.126 104.493,0.386 104.493,0.685L104.493,35.25C104.493,41.596 101.673,44.338 97.129,44.338C93.522,44.338 90.606,42.539 87.667,39.461C87.52,39.306 87.314,39.22 87.101,39.223C86.887,39.226 86.684,39.319 86.542,39.478C85.098,41.085 81.268,45.349 79.954,46.813C79.871,46.906 79.814,47.013 79.784,47.126ZM131.76,0L148.935,0C150.005,-0 151.03,0.425 151.787,1.181C152.543,1.938 152.968,2.963 152.968,4.033L152.968,14.576L177.405,14.576C185.561,14.576 192.172,21.188 192.172,29.343L192.172,36.993C192.737,41.137 195.471,43.392 200.731,43.445L216.715,43.445C218.924,43.445 220.715,45.236 220.715,47.445L220.715,68.522C220.715,70.732 218.924,72.522 216.715,72.522L195.638,72.522C193.428,72.522 191.638,70.732 191.638,68.522L191.638,50.602C191.638,50.486 191.638,50.37 191.638,50.255C191.579,45.9 189.307,43.946 185.5,43.653L157.801,43.653L157.801,22.576C156.19,20.06 154.579,20.123 152.968,22.576L152.968,51.264C152.968,52.386 152.51,53.401 151.77,54.132L138.213,34.859C145.123,32.296 149.859,26.783 149.859,18.01L149.859,17.854C149.859,12.73 148.229,8.459 145.201,5.431C142.054,2.284 137.52,0.403 131.76,0ZM138.758,55.297L101.182,55.297C105.472,54.712 109.066,53.084 111.701,50.449C114.991,47.158 116.871,42.301 116.871,35.799L116.871,11.478C116.871,11.274 116.952,11.079 117.096,10.935C117.24,10.792 117.435,10.711 117.638,10.711L128.352,10.711C134.175,10.711 137.747,13.351 137.747,18.475L137.747,18.631C137.747,23.212 134.408,26.318 128.585,26.318L118.763,26.318L125.841,36.877L125.867,36.877L138.328,54.88C138.444,55.048 138.591,55.189 138.758,55.297ZM93.786,55.297L83.817,55.297C82.747,55.297 81.721,54.872 80.965,54.115C80.209,53.359 79.784,52.333 79.784,51.264L79.784,47.525C79.814,47.635 79.868,47.74 79.948,47.831C83.117,51.404 87.549,54.436 93.786,55.297Z" style="fill:rgb(0,173,238);"/>
                    </g>
                </g>
                <g transform="matrix(2.76252,0,0,1.50393,-944.388,168.416)">
                    <path d="M536.176,370.835L547.242,370.835L547.242,367.755L539.564,367.755L539.564,355.435L536.176,355.435L536.176,370.835Z" style="fill:rgb(1,173,238);fill-rule:nonzero;"/>
                    <path d="M555.844,371.099C560.596,371.099 564.05,367.513 564.05,363.135L564.05,363.091C564.05,358.713 560.64,355.171 555.888,355.171C551.136,355.171 547.682,358.757 547.682,363.135L547.682,363.179C547.682,367.557 551.092,371.099 555.844,371.099ZM555.888,367.975C553.16,367.975 551.224,365.775 551.224,363.135L551.224,363.091C551.224,360.451 553.116,358.295 555.844,358.295C558.572,358.295 560.508,360.495 560.508,363.135L560.508,363.179C560.508,365.819 558.616,367.975 555.888,367.975Z" style="fill:rgb(1,173,238);fill-rule:nonzero;"/>
                    <path d="M573.928,371.099C576.744,371.099 578.922,369.999 580.506,368.657L580.506,361.969L573.818,361.969L573.818,364.895L577.228,364.895L577.228,367.095C576.37,367.711 575.27,368.019 574.038,368.019C571.31,368.019 569.374,365.951 569.374,363.135L569.374,363.091C569.374,360.473 571.332,358.295 573.796,358.295C575.578,358.295 576.634,358.867 577.822,359.857L579.956,357.283C578.35,355.919 576.678,355.171 573.906,355.171C569.242,355.171 565.832,358.757 565.832,363.135L565.832,363.179C565.832,367.733 569.132,371.099 573.928,371.099Z" style="fill:rgb(1,173,238);fill-rule:nonzero;"/>
                    <path d="M583.366,370.835L586.754,370.835L586.754,355.435L583.366,355.435L583.366,370.835ZM583.696,354.225L586.248,354.225L589.24,352.025L586.358,350.771L583.696,354.225Z" style="fill:rgb(1,173,238);fill-rule:nonzero;"/>
                    <path d="M595.532,371.055C598.854,371.055 601.186,369.339 601.186,366.281L601.186,366.237C601.186,363.553 599.426,362.431 596.302,361.617C593.64,360.935 592.98,360.605 592.98,359.593L592.98,359.549C592.98,358.801 593.662,358.207 594.96,358.207C596.258,358.207 597.6,358.779 598.964,359.725L600.724,357.173C599.162,355.919 597.248,355.215 595.004,355.215C591.858,355.215 589.614,357.063 589.614,359.857L589.614,359.901C589.614,362.959 591.616,363.817 594.718,364.609C597.292,365.269 597.82,365.709 597.82,366.567L597.82,366.611C597.82,367.513 596.984,368.063 595.598,368.063C593.838,368.063 592.386,367.337 591,366.193L588.998,368.591C590.846,370.241 593.2,371.055 595.532,371.055Z" style="fill:rgb(1,173,238);fill-rule:nonzero;"/>
                    <path d="M606.84,370.835L610.228,370.835L610.228,358.559L614.914,358.559L614.914,355.435L602.154,355.435L602.154,358.559L606.84,358.559L606.84,370.835Z" style="fill:rgb(1,173,238);fill-rule:nonzero;"/>
                    <rect x="617.114" y="355.435" width="3.388" height="15.4" style="fill:rgb(1,173,238);fill-rule:nonzero;"/>
                    <path d="M631.018,371.099C633.988,371.099 635.748,370.043 637.332,368.349L635.176,366.171C633.966,367.271 632.888,367.975 631.128,367.975C628.488,367.975 626.662,365.775 626.662,363.135L626.662,363.091C626.662,360.451 628.532,358.295 631.128,358.295C632.668,358.295 633.878,358.955 635.066,360.033L637.222,357.547C635.792,356.139 634.054,355.171 631.15,355.171C626.42,355.171 623.12,358.757 623.12,363.135L623.12,363.179C623.12,367.601 626.486,371.099 631.018,371.099Z" style="fill:rgb(1,173,238);fill-rule:nonzero;"/>
                    <path d="M638.168,370.835L641.622,370.835L643.03,367.381L649.542,367.381L650.95,370.835L654.492,370.835L647.892,355.325L644.768,355.325L638.168,370.835ZM644.24,364.389L646.286,359.395L648.332,364.389L644.24,364.389Z" style="fill:rgb(1,173,238);fill-rule:nonzero;"/>
                    <path d="M662.368,370.835L674.094,370.835L674.094,367.821L665.734,367.821L665.734,364.587L672.994,364.587L672.994,361.573L665.734,361.573L665.734,358.449L673.984,358.449L673.984,355.435L662.368,355.435L662.368,370.835Z" style="fill:rgb(1,173,238);fill-rule:nonzero;"/>
                    <path d="M676.558,370.835L679.902,370.835L679.902,361.045L687.36,370.835L690.242,370.835L690.242,355.435L686.898,355.435L686.898,364.917L679.682,355.435L676.558,355.435L676.558,370.835Z" style="fill:rgb(1,173,238);fill-rule:nonzero;"/>
                    <path d="M699.438,370.835L702.76,370.835L702.76,360.847L707.05,367.359L707.138,367.359L711.472,360.781L711.472,370.835L714.838,370.835L714.838,355.435L711.186,355.435L707.138,361.947L703.09,355.435L699.438,355.435L699.438,370.835Z" style="fill:rgb(1,173,238);fill-rule:nonzero;"/>
                    <path d="M725.464,371.099C730.216,371.099 733.67,367.513 733.67,363.135L733.67,363.091C733.67,358.713 730.26,355.171 725.508,355.171C720.756,355.171 717.302,358.757 717.302,363.135L717.302,363.179C717.302,367.557 720.712,371.099 725.464,371.099ZM725.508,367.975C722.78,367.975 720.844,365.775 720.844,363.135L720.844,363.091C720.844,360.451 722.736,358.295 725.464,358.295C728.192,358.295 730.128,360.495 730.128,363.135L730.128,363.179C730.128,365.819 728.236,367.975 725.508,367.975Z" style="fill:rgb(1,173,238);fill-rule:nonzero;"/>
                    <path d="M740.05,370.945L743.042,370.945L749.268,355.435L745.616,355.435L741.59,366.281L737.564,355.435L733.824,355.435L740.05,370.945Z" style="fill:rgb(1,173,238);fill-rule:nonzero;"/>
                    <rect x="751.248" y="355.435" width="3.388" height="15.4" style="fill:rgb(1,173,238);fill-rule:nonzero;"/>
                    <path d="M757.936,370.835L761.258,370.835L761.258,360.847L765.548,367.359L765.636,367.359L769.97,360.781L769.97,370.835L773.336,370.835L773.336,355.435L769.684,355.435L765.636,361.947L761.588,355.435L757.936,355.435L757.936,370.835Z" style="fill:rgb(1,173,238);fill-rule:nonzero;"/>
                    <rect x="776.636" y="355.435" width="3.388" height="15.4" style="fill:rgb(1,173,238);fill-rule:nonzero;"/>
                    <path d="M783.324,370.835L795.05,370.835L795.05,367.821L786.69,367.821L786.69,364.587L793.95,364.587L793.95,361.573L786.69,361.573L786.69,358.449L794.94,358.449L794.94,355.435L783.324,355.435L783.324,370.835Z" style="fill:rgb(1,173,238);fill-rule:nonzero;"/>
                    <path d="M797.514,370.835L800.858,370.835L800.858,361.045L808.316,370.835L811.198,370.835L811.198,355.435L807.854,355.435L807.854,364.917L800.638,355.435L797.514,355.435L797.514,370.835Z" style="fill:rgb(1,173,238);fill-rule:nonzero;"/>
                    <path d="M817.93,370.835L821.318,370.835L821.318,358.559L826.004,358.559L826.004,355.435L813.244,355.435L813.244,358.559L817.93,358.559L817.93,370.835Z" style="fill:rgb(1,173,238);fill-rule:nonzero;"/>
                    <path d="M834.87,371.099C839.622,371.099 843.076,367.513 843.076,363.135L843.076,363.091C843.076,358.713 839.666,355.171 834.914,355.171C830.162,355.171 826.708,358.757 826.708,363.135L826.708,363.179C826.708,367.557 830.118,371.099 834.87,371.099ZM834.914,367.975C832.186,367.975 830.25,365.775 830.25,363.135L830.25,363.091C830.25,360.451 832.142,358.295 834.87,358.295C837.598,358.295 839.534,360.495 839.534,363.135L839.534,363.179C839.534,365.819 837.642,367.975 834.914,367.975Z" style="fill:rgb(1,173,238);fill-rule:nonzero;"/>
                </g>
            </g>
        </g>
    </g>
</svg>
