<?xml version="1.0" encoding="UTF-8" standalone="no"?><!DOCTYPE svg PUBLIC "-//W3C//DTD SVG 1.1//EN" "http://www.w3.org/Graphics/SVG/1.1/DTD/svg11.dtd"><svg width="100%" height="100%" viewBox="0 0 521 132" version="1.1" xmlns="http://www.w3.org/2000/svg" xmlns:xlink="http://www.w3.org/1999/xlink" xml:space="preserve" xmlns:serif="http://www.serif.com/" style="fill-rule:evenodd;clip-rule:evenodd;stroke-linejoin:round;stroke-miterlimit:2;"><rect id="Artboard5" x="0" y="0" width="520.833" height="131.615" style="fill:none;"/><clipPath id="_clip1"><rect x="0" y="0" width="520.833" height="131.615"/></clipPath><g clip-path="url(#_clip1)"><g><path d="M21.611,61.124c6.929,0 12.702,-2.3 16.662,-6.244c4.289,-4.273 6.021,-9.45 6.021,-17.009l0,-35.414l-18.806,-0l-0,35.743c-0,4.026 -2.145,6.655 -5.362,6.655c-3.134,0 -5.279,-1.89 -7.506,-5.012l-12.62,10.6c4.207,6.244 10.558,10.681 21.611,10.681Z" style="fill:#364787;fill-rule:nonzero;"/><path d="M50.315,59.974l19.302,-0l-0,-16.433l4.124,-0l10.888,16.433l22.023,-0l-13.445,-19.556c7.011,-3.369 11.383,-9.203 11.383,-17.584l0,-0.164c0,-5.916 -1.815,-10.189 -5.279,-13.64c-4.042,-4.026 -10.558,-6.573 -20.786,-6.573l-28.21,-0l0,57.517Zm19.302,-30.155l-0,-11.257l8.413,-0c4.454,-0 7.341,1.807 7.341,5.505l0,0.164c0,3.533 -2.804,5.588 -7.423,5.588l-8.331,-0Z" style="fill:#364787;fill-rule:nonzero;"/><path d="M130.243,59.974l18.889,-0l-0,-28.512l13.28,20.46l0.33,-0l13.279,-20.46l0,28.512l19.219,-0l0,-57.517l-20.126,-0l-12.372,20.213l-12.373,-20.213l-20.126,-0l-0,57.517Z" style="fill:#364787;fill-rule:nonzero;"/><path d="M287.37,35.519c0.396,-1.316 0.603,-2.713 0.603,-4.139l-0,-0.165c-0,-6.819 -4.704,-12.982 -12.13,-12.982c-5.026,-0 -8.777,2.848 -10.643,6.805c-0.861,1.825 -1.322,3.886 -1.322,6.013l0,0.164c0,2.144 -0.227,4.232 -0.662,6.243c-1.188,5.5 -3.924,10.426 -7.785,14.347c-0.444,0.451 -0.903,0.889 -1.376,1.313c-0.475,0.425 -0.963,0.835 -1.465,1.231c-5.443,4.291 -12.488,6.858 -20.311,6.858c-17.816,-0 -31.426,-13.147 -31.426,-29.827l-0,-0.165c-0,-16.68 13.775,-29.991 31.591,-29.991c7.863,0 14.907,2.561 20.325,6.855c-0.473,0.43 -0.932,0.873 -1.377,1.329c-3.558,3.649 -6.205,8.109 -7.646,13.072c-0.257,0.888 -0.476,1.792 -0.655,2.71c-1.886,-4.041 -5.705,-6.957 -10.812,-6.957c-7.341,-0 -11.96,6.08 -11.96,12.818l0,0.164c0,6.82 4.702,12.983 12.125,12.983c5.024,-0 8.773,-2.848 10.639,-6.805c0.284,-0.601 0.524,-1.227 0.718,-1.874c0.397,-1.316 0.604,-2.713 0.604,-4.139l-0,-0.165c-0,-2.143 0.227,-4.231 0.662,-6.243c1.188,-5.5 3.924,-10.426 7.784,-14.347c0.445,-0.451 0.904,-0.888 1.377,-1.312c0.474,-0.425 0.963,-0.836 1.465,-1.231c5.443,-4.291 12.489,-6.858 20.315,-6.858c17.823,0 31.438,13.147 31.438,29.827l0,0.164c0,16.68 -13.78,29.992 -31.603,29.992c-7.865,-0 -14.911,-2.561 -20.329,-6.855c0.472,-0.43 0.931,-0.874 1.376,-1.33c3.558,-3.649 6.206,-8.109 7.646,-13.073c0.258,-0.887 0.477,-1.791 0.656,-2.709c1.886,4.041 5.707,6.958 10.816,6.958c5.74,-0 9.816,-3.714 11.323,-8.553l0.642,0.641l-0.637,-0.657c0.011,-0.037 0.022,-0.073 0.034,-0.11Zm-81.611,-4.304l0,0.005c0,0.059 -0.012,0.124 -0.035,0.195l0.035,-0.035c0,14.009 11.556,24.92 26.52,24.92c6.65,-0 12.647,-2.156 17.273,-5.804c0.421,-0.332 0.831,-0.677 1.229,-1.033c0.397,-0.355 0.782,-0.722 1.154,-1.1c3.214,-3.264 5.496,-7.363 6.485,-11.941c0.363,-1.678 0.552,-3.419 0.552,-5.207c-0,1.547 0.715,2.926 1.833,3.826c0.217,-0.432 0.494,-0.826 0.822,-1.172l-2.655,-2.657l-0,-0.156l2.734,2.731l-2.734,-2.736c-0,-2.868 0.629,-5.645 1.79,-8.106c2.643,-5.603 7.965,-9.619 15.081,-9.619c10.326,0 17.036,8.407 17.036,17.889l0,0.005c0,0.059 -0.012,0.124 -0.035,0.195l0.035,-0.035c0,9.403 -6.622,17.724 -16.871,17.724c-3.357,0 -6.322,-0.888 -8.8,-2.414c-1.13,2.379 -2.515,4.618 -4.126,6.687c3.758,1.876 8.092,2.923 12.761,2.923c14.986,-0 26.697,-11.06 26.697,-25.085l-0,-0.164c-0,-14.01 -11.561,-24.92 -26.532,-24.92c-6.652,-0 -12.651,2.156 -17.277,5.804c-0.422,0.332 -0.832,0.677 -1.23,1.033c-0.397,0.355 -0.781,0.722 -1.153,1.1c-3.214,3.264 -5.496,7.362 -6.485,11.94c-0.363,1.678 -0.552,3.42 -0.552,5.207l0,0.005c0,0.055 -0.001,0.109 -0.003,0.163l0.003,-0.003c0,2.868 -0.629,5.645 -1.79,8.106c-2.643,5.604 -7.963,9.618 -15.077,9.618c-10.322,0 -17.031,-8.406 -17.031,-17.889l4.906,4.907l-4.906,-5.066l4.906,4.902l-4.906,-4.907c-0,-9.403 6.621,-17.725 16.866,-17.725c3.355,0 6.319,0.888 8.796,2.413c1.13,-2.378 2.515,-4.617 4.126,-6.686c-3.757,-1.875 -8.09,-2.922 -12.757,-2.922c-14.979,-0 -26.685,11.06 -26.685,25.084Z" style="fill:#364787;"/><path d="M328.233,60.385l18.476,-0l23.426,-57.928l-21.281,-0l-11.218,32.292l-11.218,-32.292l-21.611,-0l23.426,57.928Z" style="fill:#364787;fill-rule:nonzero;"/><rect x="372.692" y="2.457" width="19.301" height="57.517" style="fill:#364787;fill-rule:nonzero;"/><path d="M398.757,59.974l19.136,-0l-0,-26.54l21.446,26.54l17.157,-0l-0,-57.517l-19.137,-0l0,25.39l-20.538,-25.39l-18.064,-0l-0,57.517Z" style="fill:#364787;fill-rule:nonzero;"/><path d="M494.191,61.207c10.475,-0 19.219,-3.534 25.488,-8.628l-0,-26.622l-27.963,-0l0,12.325l9.898,-0l0,5.752c-1.484,0.821 -3.299,1.314 -6.598,1.314c-8.084,0 -13.775,-5.587 -13.775,-13.722l-0,-0.164c-0,-7.806 5.444,-13.558 12.95,-13.558c4.784,0 8.991,1.808 12.785,5.012l10.805,-12.982c-6.268,-5.423 -14.269,-8.71 -24.167,-8.71c-18.23,0 -31.839,12.818 -31.839,29.991l-0,0.165c-0,17.83 14.434,29.827 32.416,29.827Z" style="fill:#364787;fill-rule:nonzero;"/><path d="M73.768,129.158l46.439,0l0,-16.433l-27.137,-0l-0,-41.084l-19.302,0l0,57.517Z" style="fill:#364787;fill-rule:nonzero;"/><path d="M151.221,130.391c17.817,-0 31.592,-13.311 31.592,-29.991l-0,-0.164c-0,-16.68 -13.61,-29.827 -31.427,-29.827c-17.816,-0 -31.591,13.311 -31.591,29.991l-0,0.164c-0,16.68 13.61,29.827 31.426,29.827Zm0.165,-17.009c-7.423,0 -12.125,-6.162 -12.125,-12.982l-0,-0.164c-0,-6.738 4.619,-12.819 11.96,-12.819c7.424,0 12.125,6.163 12.125,12.983l0,0.164c0,6.738 -4.619,12.818 -11.96,12.818Z" style="fill:#364787;fill-rule:nonzero;"/><path d="M219.188,130.391c10.476,-0 19.219,-3.533 25.488,-8.628l-0,-26.622l-27.962,0l-0,12.325l9.898,0l-0,5.752c-1.485,0.822 -3.3,1.315 -6.599,1.315c-8.083,-0 -13.775,-5.588 -13.775,-13.722l0,-0.165c0,-7.806 5.444,-13.557 12.95,-13.557c4.784,-0 8.991,1.807 12.785,5.012l10.806,-12.983c-6.269,-5.423 -14.27,-8.709 -24.168,-8.709c-18.229,-0 -31.839,12.818 -31.839,29.991l-0,0.164c-0,17.831 14.435,29.827 32.416,29.827Z" style="fill:#364787;fill-rule:nonzero;"/><rect x="250.45" y="71.641" width="19.301" height="57.517" style="fill:#364787;fill-rule:nonzero;"/><path d="M301.343,130.227c15.507,-0 25.487,-7.395 25.487,-19.474l0,-0.164c0,-11.586 -9.898,-15.859 -24.663,-18.57c-6.103,-1.151 -7.671,-2.137 -7.671,-3.698l0,-0.164c0,-1.397 1.32,-2.383 4.207,-2.383c5.362,0 11.878,1.726 17.322,5.67l9.403,-12.983c-6.681,-5.259 -14.93,-7.888 -26.065,-7.888c-15.919,0 -24.498,8.463 -24.498,19.392l0,0.164c0,12.161 11.383,15.858 24.333,18.488c6.186,1.232 8.001,2.136 8.001,3.779l0,0.165c0,1.561 -1.485,2.465 -4.949,2.465c-6.764,-0 -13.94,-1.972 -20.209,-6.738l-10.31,12.243c7.341,6.409 17.899,9.696 29.612,9.696Z" style="fill:#364787;fill-rule:nonzero;"/><path d="M343.987,129.158l19.301,0l0,-41.248l16.992,0l0,-16.269l-53.285,0l0,16.269l16.992,0l0,41.248Z" style="fill:#364787;fill-rule:nonzero;"/><rect x="384.817" y="71.641" width="19.301" height="57.517" style="fill:#364787;fill-rule:nonzero;"/><path d="M439.504,130.391c14.352,-0 22.436,-6.984 27.302,-15.53l-15.919,-8.956c-2.392,4.273 -5.444,7.231 -10.888,7.231c-6.352,-0 -10.806,-5.259 -10.806,-12.736l0,-0.164c0,-6.903 4.289,-12.572 10.806,-12.572c5.279,-0 8.331,2.876 10.475,6.984l15.92,-9.285c-4.867,-8.792 -13.445,-14.954 -26.148,-14.954c-17.239,-0 -30.684,12.818 -30.684,29.991l0,0.164c0,17.831 13.94,29.827 29.942,29.827Z" style="fill:#364787;fill-rule:nonzero;"/><path d="M495.346,130.227c15.507,-0 25.487,-7.395 25.487,-19.474l0,-0.164c0,-11.586 -9.898,-15.859 -24.662,-18.57c-6.104,-1.151 -7.672,-2.137 -7.672,-3.698l0,-0.164c0,-1.397 1.32,-2.383 4.207,-2.383c5.362,0 11.878,1.726 17.322,5.67l9.403,-12.983c-6.681,-5.259 -14.93,-7.888 -26.065,-7.888c-15.919,0 -24.498,8.463 -24.498,19.392l0,0.164c0,12.161 11.383,15.858 24.333,18.488c6.186,1.232 8.001,2.136 8.001,3.779l0,0.165c0,1.561 -1.485,2.465 -4.949,2.465c-6.764,-0 -13.94,-1.972 -20.209,-6.738l-10.31,12.243c7.341,6.409 17.899,9.696 29.612,9.696Z" style="fill:#364787;fill-rule:nonzero;"/></g></g></svg>