<?xml version="1.0" encoding="UTF-8" standalone="no"?><!DOCTYPE svg PUBLIC "-//W3C//DTD SVG 1.1//EN" "http://www.w3.org/Graphics/SVG/1.1/DTD/svg11.dtd"><svg width="100%" height="100%" viewBox="0 0 650 250" version="1.1" xmlns="http://www.w3.org/2000/svg" xmlns:xlink="http://www.w3.org/1999/xlink" xml:space="preserve" xmlns:serif="http://www.serif.com/" style="fill-rule:evenodd;clip-rule:evenodd;stroke-linejoin:round;stroke-miterlimit:2;"><rect id="Artboard2" x="0" y="0" width="650" height="250" style="fill:none;"/><g><path d="M0,186.546l130.019,-103.97l128.422,103.97l-71.265,0l-57.157,-52.222l-58.766,52.222l-71.253,0Z" style="fill:#676767;"/><path d="M149.396,82.576l63.166,0l125.711,103.97l-66.102,0l-122.775,-103.97Z" style="fill:#676767;"/><path d="M217.716,75.653l25.716,-20.982l169.546,131.875l69.545,0l-239.091,-186.546l-94.036,75.653l68.32,0Z" style="fill:#676767;"/><path d="M264.468,0l107.298,0l245.56,186.546l-111.618,0l-241.24,-186.546Z" style="fill:#676767;"/><g><path d="M4.246,204.812l-0,44.198l9.087,-0l0,-31.013l0.124,-0l10.818,31.013l7.48,-0l10.818,-31.323l0.124,0l-0,31.323l9.087,-0l0,-44.198l-13.662,-0l-9.767,30.394l-0.124,-0l-10.323,-30.394l-13.662,-0Z" style="fill:#676767;"/><path d="M59.017,226.849c0.124,-2.063 0.639,-3.776 1.545,-5.138c0.907,-1.362 2.061,-2.455 3.462,-3.281c1.401,-0.825 2.978,-1.413 4.729,-1.764c1.752,-0.351 3.514,-0.526 5.286,-0.526c1.607,-0 3.235,0.113 4.883,0.34c1.649,0.227 3.153,0.671 4.513,1.331c1.36,0.661 2.473,1.579 3.338,2.755c0.866,1.176 1.299,2.734 1.299,4.673l-0,16.652c-0,1.444 0.082,2.827 0.247,4.147c0.165,1.321 0.453,2.311 0.865,2.972l-8.902,-0c-0.164,-0.496 -0.298,-1.001 -0.401,-1.517c-0.103,-0.516 -0.175,-1.042 -0.217,-1.578c-1.401,1.444 -3.049,2.455 -4.945,3.033c-1.896,0.577 -3.833,0.866 -5.811,0.866c-1.525,0 -2.947,-0.185 -4.266,-0.557c-1.318,-0.371 -2.472,-0.949 -3.461,-1.733c-0.989,-0.784 -1.762,-1.775 -2.319,-2.971c-0.556,-1.197 -0.834,-2.621 -0.834,-4.272c-0,-1.815 0.319,-3.311 0.958,-4.487c0.639,-1.176 1.463,-2.115 2.473,-2.817c1.01,-0.701 2.163,-1.228 3.462,-1.578c1.298,-0.351 2.606,-0.63 3.925,-0.836c1.319,-0.206 2.617,-0.371 3.895,-0.495c1.277,-0.124 2.411,-0.31 3.4,-0.557c0.989,-0.248 1.772,-0.609 2.349,-1.084c0.577,-0.474 0.845,-1.165 0.803,-2.073c0,-0.949 -0.154,-1.703 -0.463,-2.26c-0.309,-0.557 -0.721,-0.99 -1.237,-1.3c-0.515,-0.309 -1.112,-0.516 -1.792,-0.619c-0.68,-0.103 -1.412,-0.154 -2.195,-0.154c-1.731,-0 -3.091,0.371 -4.08,1.114c-0.989,0.743 -1.566,1.981 -1.731,3.714l-8.778,-0Zm20.276,6.5c-0.371,0.33 -0.834,0.588 -1.391,0.773c-0.556,0.186 -1.153,0.341 -1.792,0.465c-0.639,0.123 -1.309,0.227 -2.009,0.309c-0.701,0.083 -1.402,0.186 -2.102,0.31c-0.66,0.123 -1.309,0.288 -1.947,0.495c-0.639,0.206 -1.196,0.485 -1.67,0.835c-0.473,0.351 -0.855,0.795 -1.143,1.331c-0.289,0.537 -0.433,1.218 -0.433,2.043c0,0.784 0.144,1.444 0.433,1.981c0.288,0.536 0.68,0.959 1.174,1.269c0.495,0.309 1.072,0.526 1.731,0.65c0.66,0.124 1.34,0.186 2.04,0.186c1.731,-0 3.071,-0.289 4.018,-0.867c0.948,-0.578 1.649,-1.269 2.102,-2.074c0.454,-0.804 0.732,-1.62 0.835,-2.445c0.103,-0.825 0.154,-1.485 0.154,-1.981l0,-3.28Z" style="fill:#676767;"/><path d="M105.999,217.007l-0,-9.595l-8.778,-0l-0,9.595l-5.317,-0l0,5.88l5.317,0l-0,18.88c-0,1.61 0.268,2.909 0.803,3.9c0.536,0.99 1.268,1.754 2.195,2.29c0.927,0.537 1.999,0.898 3.214,1.084c1.216,0.185 2.504,0.278 3.864,0.278c0.866,0 1.752,-0.021 2.658,-0.062c0.907,-0.041 1.731,-0.124 2.473,-0.247l0,-6.81c-0.412,0.083 -0.845,0.145 -1.298,0.186c-0.454,0.041 -0.927,0.062 -1.422,0.062c-1.484,0 -2.473,-0.248 -2.967,-0.743c-0.495,-0.495 -0.742,-1.485 -0.742,-2.971l-0,-15.847l6.429,0l0,-5.88l-6.429,-0Z" style="fill:#676767;"/><path d="M138.144,229.573l-14.28,-0c0.042,-0.619 0.176,-1.321 0.402,-2.105c0.227,-0.784 0.618,-1.527 1.175,-2.229c0.556,-0.701 1.298,-1.289 2.225,-1.764c0.927,-0.474 2.092,-0.712 3.493,-0.712c2.143,0 3.74,0.578 4.791,1.734c1.051,1.155 1.782,2.847 2.194,5.076Zm-14.28,5.571l23.059,-0c0.164,-2.476 -0.042,-4.849 -0.619,-7.119c-0.577,-2.27 -1.514,-4.292 -2.812,-6.066c-1.298,-1.775 -2.957,-3.188 -4.977,-4.241c-2.019,-1.052 -4.389,-1.578 -7.109,-1.578c-2.431,-0 -4.646,0.433 -6.645,1.3c-1.999,0.866 -3.72,2.053 -5.162,3.559c-1.443,1.506 -2.555,3.291 -3.338,5.355c-0.783,2.063 -1.175,4.291 -1.175,6.685c0,2.476 0.381,4.746 1.144,6.809c0.762,2.064 1.844,3.838 3.245,5.324c1.402,1.485 3.112,2.631 5.131,3.435c2.02,0.805 4.286,1.207 6.8,1.207c3.627,0 6.718,-0.825 9.273,-2.476c2.555,-1.65 4.451,-4.395 5.687,-8.233l-7.727,0c-0.289,0.991 -1.072,1.93 -2.349,2.817c-1.278,0.887 -2.803,1.331 -4.575,1.331c-2.472,-0 -4.368,-0.64 -5.687,-1.919c-1.319,-1.279 -2.04,-3.343 -2.164,-6.19Z" style="fill:#676767;"/><path d="M152.115,217.007l0,32.003l8.779,-0l-0,-14.423c-0,-1.445 0.144,-2.786 0.432,-4.024c0.289,-1.238 0.773,-2.321 1.453,-3.25c0.68,-0.928 1.576,-1.661 2.689,-2.197c1.113,-0.537 2.473,-0.805 4.08,-0.805c0.536,-0 1.092,0.031 1.669,0.093c0.577,0.062 1.072,0.134 1.484,0.216l-0,-8.171c-0.701,-0.206 -1.34,-0.309 -1.917,-0.309c-1.112,-0 -2.184,0.165 -3.214,0.495c-1.03,0.33 -1.999,0.795 -2.906,1.393c-0.906,0.598 -1.71,1.32 -2.41,2.166c-0.701,0.846 -1.257,1.765 -1.67,2.755l-0.123,0l-0,-5.942l-8.346,-0Z" style="fill:#676767;"/><path d="M196.81,228.273l8.593,-0c-0.124,-2.064 -0.618,-3.849 -1.484,-5.355c-0.865,-1.506 -1.988,-2.765 -3.369,-3.776c-1.381,-1.011 -2.947,-1.764 -4.698,-2.259c-1.752,-0.495 -3.575,-0.743 -5.471,-0.743c-2.596,-0 -4.904,0.433 -6.924,1.3c-2.019,0.866 -3.729,2.074 -5.131,3.621c-1.401,1.548 -2.462,3.384 -3.183,5.509c-0.722,2.126 -1.082,4.426 -1.082,6.902c-0,2.394 0.391,4.591 1.174,6.593c0.783,2.001 1.876,3.724 3.277,5.169c1.401,1.444 3.101,2.569 5.1,3.373c1.999,0.805 4.193,1.207 6.583,1.207c4.245,0 7.728,-1.114 10.448,-3.342c2.72,-2.229 4.368,-5.468 4.945,-9.719l-8.469,0c-0.288,1.981 -0.999,3.559 -2.133,4.736c-1.133,1.176 -2.751,1.764 -4.852,1.764c-1.36,-0 -2.514,-0.31 -3.462,-0.929c-0.948,-0.619 -1.7,-1.413 -2.257,-2.383c-0.556,-0.97 -0.958,-2.053 -1.205,-3.25c-0.247,-1.197 -0.371,-2.373 -0.371,-3.528c0,-1.197 0.124,-2.404 0.371,-3.621c0.247,-1.218 0.67,-2.332 1.267,-3.343c0.598,-1.011 1.371,-1.836 2.318,-2.476c0.948,-0.64 2.123,-0.96 3.524,-0.96c3.75,0 5.914,1.837 6.491,5.51Z" style="fill:#676767;"/><path d="M218.323,233.039c-0,-1.279 0.123,-2.538 0.371,-3.776c0.247,-1.238 0.669,-2.332 1.267,-3.281c0.598,-0.949 1.391,-1.723 2.38,-2.321c0.989,-0.598 2.225,-0.898 3.709,-0.898c1.484,0 2.73,0.3 3.74,0.898c1.01,0.598 1.813,1.372 2.411,2.321c0.598,0.949 1.02,2.043 1.267,3.281c0.248,1.238 0.371,2.497 0.371,3.776c0,1.279 -0.123,2.528 -0.371,3.745c-0.247,1.217 -0.669,2.311 -1.267,3.281c-0.598,0.97 -1.401,1.743 -2.411,2.321c-1.01,0.578 -2.256,0.867 -3.74,0.867c-1.484,-0 -2.72,-0.289 -3.709,-0.867c-0.989,-0.578 -1.782,-1.351 -2.38,-2.321c-0.598,-0.97 -1.02,-2.064 -1.267,-3.281c-0.248,-1.217 -0.371,-2.466 -0.371,-3.745Zm-8.778,0c-0,2.559 0.391,4.87 1.174,6.933c0.783,2.063 1.896,3.828 3.338,5.293c1.443,1.465 3.174,2.589 5.193,3.373c2.019,0.784 4.286,1.176 6.8,1.176c2.514,0 4.791,-0.392 6.831,-1.176c2.04,-0.784 3.781,-1.908 5.224,-3.373c1.442,-1.465 2.555,-3.23 3.338,-5.293c0.783,-2.063 1.174,-4.374 1.174,-6.933c0,-2.559 -0.391,-4.88 -1.174,-6.964c-0.783,-2.084 -1.896,-3.858 -3.338,-5.323c-1.443,-1.465 -3.184,-2.6 -5.224,-3.405c-2.04,-0.805 -4.317,-1.207 -6.831,-1.207c-2.514,-0 -4.781,0.402 -6.8,1.207c-2.019,0.805 -3.75,1.94 -5.193,3.405c-1.442,1.465 -2.555,3.239 -3.338,5.323c-0.783,2.084 -1.174,4.405 -1.174,6.964Z" style="fill:#676767;"/><path d="M248.552,217.007l-0,32.003l8.778,-0l0,-18.571c0,-1.568 0.227,-2.837 0.68,-3.807c0.453,-0.97 1,-1.712 1.638,-2.228c0.639,-0.516 1.298,-0.867 1.978,-1.053c0.68,-0.185 1.227,-0.278 1.639,-0.278c1.401,-0 2.462,0.237 3.183,0.712c0.722,0.474 1.237,1.104 1.546,1.888c0.309,0.784 0.484,1.64 0.525,2.569c0.041,0.928 0.062,1.867 0.062,2.816l0,17.952l8.778,-0l0,-17.828c0,-0.99 0.072,-1.971 0.217,-2.94c0.144,-0.97 0.432,-1.837 0.865,-2.6c0.433,-0.764 1.03,-1.383 1.793,-1.857c0.762,-0.475 1.762,-0.712 2.998,-0.712c1.236,-0 2.215,0.206 2.936,0.619c0.722,0.413 1.268,0.97 1.639,1.671c0.37,0.702 0.597,1.527 0.68,2.476c0.082,0.949 0.123,1.961 0.123,3.033l0,18.138l8.778,-0l0,-21.418c0,-2.064 -0.288,-3.828 -0.865,-5.293c-0.577,-1.465 -1.381,-2.651 -2.411,-3.559c-1.03,-0.908 -2.267,-1.568 -3.709,-1.981c-1.443,-0.413 -3.009,-0.619 -4.698,-0.619c-2.226,-0 -4.152,0.536 -5.78,1.609c-1.628,1.073 -2.916,2.311 -3.864,3.714c-0.865,-1.98 -2.133,-3.363 -3.802,-4.147c-1.669,-0.784 -3.513,-1.176 -5.533,-1.176c-2.101,-0 -3.966,0.454 -5.594,1.362c-1.628,0.908 -3.019,2.187 -4.173,3.838l-0.123,-0l-0,-4.333l-8.284,-0Z" style="fill:#676767;"/><path d="M329.039,234.339l-9.396,-0c-0.041,2.724 0.453,5.076 1.484,7.057c1.03,1.981 2.421,3.611 4.172,4.89c1.752,1.279 3.771,2.218 6.059,2.816c2.287,0.599 4.646,0.898 7.078,0.898c3.008,0 5.656,-0.351 7.943,-1.052c2.288,-0.702 4.204,-1.682 5.749,-2.941c1.546,-1.258 2.71,-2.754 3.493,-4.487c0.783,-1.734 1.175,-3.611 1.175,-5.634c-0,-2.476 -0.526,-4.508 -1.577,-6.097c-1.051,-1.589 -2.297,-2.858 -3.74,-3.807c-1.442,-0.949 -2.895,-1.64 -4.358,-2.073c-1.463,-0.434 -2.606,-0.733 -3.431,-0.898c-2.761,-0.702 -4.997,-1.279 -6.707,-1.733c-1.71,-0.454 -3.05,-0.908 -4.018,-1.362c-0.969,-0.454 -1.618,-0.949 -1.947,-1.486c-0.33,-0.536 -0.495,-1.238 -0.495,-2.104c-0,-0.95 0.206,-1.734 0.618,-2.353c0.412,-0.619 0.938,-1.134 1.577,-1.547c0.638,-0.413 1.349,-0.702 2.132,-0.867c0.783,-0.165 1.566,-0.247 2.349,-0.247c1.196,-0 2.298,0.103 3.308,0.309c1.009,0.206 1.906,0.557 2.689,1.052c0.783,0.496 1.411,1.177 1.885,2.043c0.474,0.867 0.752,1.96 0.835,3.281l9.396,-0c0,-2.559 -0.484,-4.735 -1.453,-6.531c-0.968,-1.795 -2.277,-3.27 -3.925,-4.426c-1.649,-1.155 -3.534,-1.991 -5.656,-2.507c-2.123,-0.515 -4.338,-0.773 -6.646,-0.773c-1.978,-0 -3.956,0.268 -5.934,0.804c-1.979,0.537 -3.751,1.362 -5.317,2.476c-1.566,1.115 -2.833,2.507 -3.802,4.179c-0.968,1.671 -1.452,3.642 -1.452,5.911c-0,2.022 0.381,3.745 1.143,5.169c0.763,1.424 1.762,2.61 2.998,3.559c1.237,0.95 2.638,1.723 4.204,2.322c1.566,0.598 3.173,1.104 4.822,1.516c1.607,0.454 3.194,0.867 4.76,1.238c1.566,0.372 2.967,0.805 4.204,1.3c1.236,0.496 2.235,1.115 2.998,1.857c0.762,0.743 1.143,1.713 1.143,2.91c0,1.114 -0.288,2.032 -0.865,2.754c-0.577,0.723 -1.298,1.29 -2.164,1.703c-0.865,0.412 -1.792,0.691 -2.782,0.835c-0.989,0.145 -1.916,0.217 -2.781,0.217c-1.278,-0 -2.514,-0.155 -3.709,-0.464c-1.196,-0.31 -2.236,-0.784 -3.122,-1.424c-0.886,-0.64 -1.597,-1.475 -2.133,-2.507c-0.536,-1.032 -0.804,-2.29 -0.804,-3.776Z" style="fill:#676767;"/><rect x="361.989" y="239.477" width="9.705" height="9.533" style="fill:#676767;"/><path d="M390.858,231.925l5.749,-16.218l0.123,-0l5.564,16.218l-11.436,-0Zm0.927,-27.113l-16.691,44.198l9.767,-0l3.462,-9.843l16.506,0l3.338,9.843l10.076,-0l-16.505,-44.198l-9.953,-0Z" style="fill:#676767;"/><rect x="421.52" y="239.477" width="9.705" height="9.533" style="fill:#676767;"/><path d="M478.207,232.915c-0,1.321 -0.124,2.6 -0.371,3.838c-0.247,1.238 -0.659,2.342 -1.236,3.312c-0.577,0.97 -1.35,1.743 -2.319,2.321c-0.968,0.578 -2.173,0.867 -3.616,0.867c-1.36,-0 -2.524,-0.299 -3.493,-0.898c-0.968,-0.598 -1.772,-1.382 -2.411,-2.352c-0.638,-0.97 -1.102,-2.074 -1.39,-3.312c-0.289,-1.238 -0.433,-2.476 -0.433,-3.714c-0,-1.32 0.134,-2.589 0.402,-3.807c0.268,-1.217 0.7,-2.3 1.298,-3.25c0.597,-0.949 1.391,-1.712 2.38,-2.29c0.989,-0.578 2.205,-0.867 3.647,-0.867c1.443,0 2.638,0.289 3.586,0.867c0.947,0.578 1.72,1.331 2.318,2.259c0.597,0.929 1.02,2.002 1.267,3.219c0.247,1.218 0.371,2.487 0.371,3.807Zm0.124,12.009l-0,4.086l8.345,-0l0,-44.198l-8.778,-0l-0,16.094l-0.124,0c-0.989,-1.568 -2.339,-2.754 -4.049,-3.559c-1.71,-0.805 -3.513,-1.207 -5.409,-1.207c-2.349,-0 -4.41,0.464 -6.182,1.393c-1.772,0.928 -3.245,2.156 -4.42,3.683c-1.174,1.527 -2.06,3.291 -2.658,5.292c-0.598,2.002 -0.896,4.076 -0.896,6.222c-0,2.228 0.298,4.374 0.896,6.437c0.598,2.064 1.484,3.89 2.658,5.479c1.175,1.588 2.669,2.847 4.482,3.776c1.813,0.928 3.915,1.392 6.305,1.392c2.102,0 3.988,-0.381 5.657,-1.145c1.669,-0.763 3.019,-2.012 4.049,-3.745l0.124,0Z" style="fill:#676767;"/><path d="M514.803,229.573l-14.28,-0c0.042,-0.619 0.175,-1.321 0.402,-2.105c0.227,-0.784 0.618,-1.527 1.175,-2.229c0.556,-0.701 1.298,-1.289 2.225,-1.764c0.927,-0.474 2.092,-0.712 3.493,-0.712c2.143,0 3.74,0.578 4.791,1.734c1.051,1.155 1.782,2.847 2.194,5.076Zm-14.28,5.571l23.059,-0c0.164,-2.476 -0.042,-4.849 -0.619,-7.119c-0.577,-2.27 -1.514,-4.292 -2.812,-6.066c-1.299,-1.775 -2.957,-3.188 -4.977,-4.241c-2.019,-1.052 -4.389,-1.578 -7.109,-1.578c-2.431,-0 -4.647,0.433 -6.645,1.3c-1.999,0.866 -3.72,2.053 -5.162,3.559c-1.443,1.506 -2.555,3.291 -3.338,5.355c-0.783,2.063 -1.175,4.291 -1.175,6.685c0,2.476 0.381,4.746 1.144,6.809c0.762,2.064 1.844,3.838 3.245,5.324c1.401,1.485 3.112,2.631 5.131,3.435c2.02,0.805 4.286,1.207 6.8,1.207c3.627,0 6.718,-0.825 9.273,-2.476c2.555,-1.65 4.451,-4.395 5.687,-8.233l-7.727,0c-0.289,0.991 -1.072,1.93 -2.349,2.817c-1.278,0.887 -2.803,1.331 -4.575,1.331c-2.472,-0 -4.368,-0.64 -5.687,-1.919c-1.319,-1.279 -2.04,-3.343 -2.164,-6.19Z" style="fill:#676767;"/><path d="M576.313,219.668l9.396,0c-0.289,-2.558 -0.989,-4.828 -2.102,-6.809c-1.113,-1.981 -2.524,-3.642 -4.234,-4.983c-1.711,-1.341 -3.648,-2.362 -5.811,-3.064c-2.164,-0.702 -4.462,-1.052 -6.893,-1.052c-3.379,-0 -6.419,0.598 -9.118,1.795c-2.7,1.197 -4.977,2.847 -6.831,4.952c-1.855,2.105 -3.277,4.57 -4.266,7.397c-0.989,2.827 -1.483,5.891 -1.483,9.192c-0,3.219 0.494,6.222 1.483,9.007c0.989,2.786 2.411,5.21 4.266,7.274c1.854,2.063 4.131,3.683 6.831,4.859c2.699,1.176 5.739,1.764 9.118,1.764c2.72,-0 5.213,-0.413 7.48,-1.238c2.267,-0.825 4.245,-2.022 5.934,-3.59c1.69,-1.568 3.05,-3.467 4.081,-5.695c1.03,-2.229 1.669,-4.725 1.916,-7.49l-9.397,-0c-0.37,2.971 -1.39,5.364 -3.06,7.18c-1.669,1.816 -3.987,2.724 -6.954,2.724c-2.184,-0 -4.039,-0.423 -5.564,-1.269c-1.525,-0.846 -2.761,-1.971 -3.709,-3.374c-0.948,-1.403 -1.638,-2.981 -2.071,-4.735c-0.432,-1.754 -0.649,-3.559 -0.649,-5.417c0,-1.939 0.217,-3.817 0.649,-5.633c0.433,-1.815 1.123,-3.435 2.071,-4.859c0.948,-1.424 2.184,-2.558 3.709,-3.404c1.525,-0.846 3.38,-1.269 5.564,-1.269c1.195,-0 2.339,0.196 3.431,0.588c1.092,0.392 2.071,0.939 2.936,1.64c0.866,0.702 1.587,1.517 2.164,2.445c0.577,0.929 0.948,1.95 1.113,3.064Z" style="fill:#676767;"/><rect x="592.138" y="239.477" width="9.705" height="9.533" style="fill:#676767;"/><path d="M630.404,249.01l14.651,-44.198l-10.015,-0l-9.953,31.074l-0.123,0l-9.83,-31.074l-9.952,-0l14.28,44.198l10.942,-0Z" style="fill:#676767;"/><rect x="640.295" y="239.477" width="9.705" height="9.533" style="fill:#676767;"/></g></g></svg>