<?xml version="1.0" encoding="UTF-8" standalone="no"?><!DOCTYPE svg PUBLIC "-//W3C//DTD SVG 1.1//EN" "http://www.w3.org/Graphics/SVG/1.1/DTD/svg11.dtd"><svg width="100%" height="100%" viewBox="0 0 667 334" version="1.1" xmlns="http://www.w3.org/2000/svg" xmlns:xlink="http://www.w3.org/1999/xlink" xml:space="preserve" xmlns:serif="http://www.serif.com/" style="fill-rule:evenodd;clip-rule:evenodd;stroke-linejoin:round;stroke-miterlimit:2;"><rect id="Artboard3" x="0" y="-0" width="666.667" height="333.333" style="fill:none;"/><g><g><g><path d="M133.404,278.391l3.479,0l0,-17.485l10.2,-0l0,-4.128l-10.2,0l0,-12.841l11.04,-0l0,-4.185l-14.519,-0l-0,38.639Z" style="fill:#676767;fill-rule:nonzero;"/><path d="M163.889,266.237l2.88,12.154l3.72,0l-9.2,-38.639l-4.2,-0l-9.16,38.639l3.6,0l2.8,-12.154l9.56,0Zm-8.84,-3.898l2.64,-11.179c0.52,-2.35 0.96,-4.701 1.36,-6.994l0.08,-0c0.4,2.236 0.8,4.529 1.4,7.051l2.64,11.122l-8.12,0Z" style="fill:#676767;fill-rule:nonzero;"/><path d="M175.992,278.391l3.48,0l-0,-16.74l3.28,0c3.16,0.172 4.6,2.179 5.4,7.51c0.76,4.816 1.36,8.141 1.8,9.23l3.6,0c-0.56,-1.49 -1.2,-5.217 -2.08,-10.606c-0.64,-4.013 -1.88,-6.764 -3.96,-7.796l-0,-0.172c2.84,-1.376 5.08,-4.759 5.08,-9.861c-0,-2.981 -0.76,-5.618 -2.12,-7.338c-1.68,-2.179 -4.08,-3.153 -7.8,-3.153c-2.4,-0 -4.92,0.287 -6.68,0.803l-0,38.123Zm3.48,-34.626c0.56,-0.23 1.76,-0.459 3.44,-0.459c3.68,0.057 6.2,2.236 6.2,7.223c-0,4.415 -2.36,7.338 -6.08,7.338l-3.56,0l-0,-14.102Z" style="fill:#676767;fill-rule:nonzero;"/><path d="M222.454,278.391l3.4,0l-1.68,-38.639l-4.44,-0l-4.8,18.689c-1.2,4.873 -2.16,9.115 -2.84,13.013l-0.12,0c-0.68,-4.013 -1.6,-8.255 -2.72,-13.013l-4.6,-18.689l-4.44,-0l-1.88,38.639l3.32,0l0.72,-16.568c0.24,-5.79 0.44,-12.268 0.52,-17.084l0.08,0c0.76,4.586 1.84,9.574 3.12,15.02l4.36,18.403l2.64,-0l4.76,-18.747c1.36,-5.331 2.48,-10.147 3.4,-14.676l0.12,0c-0.04,4.816 0.2,11.294 0.4,16.683l0.68,16.969Z" style="fill:#676767;fill-rule:nonzero;"/><path d="M246.105,266.237l2.88,12.154l3.72,0l-9.2,-38.639l-4.2,-0l-9.16,38.639l3.6,0l2.8,-12.154l9.56,0Zm-8.84,-3.898l2.64,-11.179c0.52,-2.35 0.96,-4.701 1.36,-6.994l0.08,-0c0.4,2.236 0.8,4.529 1.4,7.051l2.64,11.122l-8.12,0Z" style="fill:#676767;fill-rule:nonzero;"/><path d="M275.471,273.174c-1.4,0.975 -3.56,1.605 -5.68,1.605c-6.56,0 -10.36,-6.076 -10.36,-15.536c-0,-10.147 4.2,-15.937 10.52,-15.937c2.24,-0 4.12,0.688 5.44,1.605l0.84,-4.07c-0.92,-0.688 -3.04,-1.72 -6.4,-1.72c-8.36,-0 -14.08,8.198 -14.08,20.294c-0,12.67 5.72,19.549 13.32,19.549c3.28,0 5.84,-0.917 7.12,-1.834l-0.72,-3.956Z" style="fill:#676767;fill-rule:nonzero;"/><path d="M296.053,256.148l-10.479,-0l-0,-12.211l11.079,-0l0,-4.185l-14.559,-0l-0,38.639l15.159,0l0,-4.185l-11.679,0l-0,-13.931l10.479,0l0,-4.127Zm-4.92,-25.168l-3.719,6.708l2.88,-0l5.079,-6.708l-4.24,0Z" style="fill:#676767;fill-rule:nonzero;"/><path d="M303.276,239.752l0,22.759c0,11.982 4.16,16.511 9.68,16.511c5.84,-0 10.2,-4.873 10.2,-16.74l0,-22.53l-3.52,-0l0,22.874c0,8.542 -2.56,12.325 -6.56,12.325c-3.6,0 -6.28,-3.669 -6.28,-12.325l0,-22.874l-3.52,-0Z" style="fill:#676767;fill-rule:nonzero;"/><path d="M335.859,278.391l3.52,0l-0,-34.397l8.24,-0l-0,-4.242l-19.96,-0l-0,4.242l8.2,-0l-0,34.397Z" style="fill:#676767;fill-rule:nonzero;"/><rect x="352.162" y="239.752" width="3.48" height="38.64" style="fill:#676767;fill-rule:nonzero;"/><path d="M381.384,273.174c-1.4,0.975 -3.56,1.605 -5.68,1.605c-6.56,0 -10.36,-6.076 -10.36,-15.536c0,-10.147 4.2,-15.937 10.52,-15.937c2.24,-0 4.12,0.688 5.44,1.605l0.84,-4.07c-0.92,-0.688 -3.04,-1.72 -6.4,-1.72c-8.36,-0 -14.08,8.198 -14.08,20.294c0,12.67 5.72,19.549 13.32,19.549c3.28,0 5.84,-0.917 7.12,-1.834l-0.72,-3.956Z" style="fill:#676767;fill-rule:nonzero;"/><path d="M402.155,266.237l2.88,12.154l3.72,0l-9.2,-38.639l-4.2,-0l-9.16,38.639l3.6,0l2.8,-12.154l9.56,0Zm-8.84,-3.898l2.64,-11.179c0.52,-2.35 0.96,-4.701 1.36,-6.994l0.08,-0c0.4,2.236 0.8,4.529 1.4,7.051l2.64,11.122l-8.12,0Z" style="fill:#676767;fill-rule:nonzero;"/><path d="M423.138,278.391l3.48,0l-0,-16.74l3.28,0c3.16,0.172 4.6,2.179 5.4,7.51c0.76,4.816 1.36,8.141 1.8,9.23l3.6,0c-0.56,-1.49 -1.2,-5.217 -2.08,-10.606c-0.64,-4.013 -1.88,-6.764 -3.96,-7.796l-0,-0.172c2.84,-1.376 5.08,-4.759 5.08,-9.861c-0,-2.981 -0.76,-5.618 -2.12,-7.338c-1.68,-2.179 -4.08,-3.153 -7.8,-3.153c-2.4,-0 -4.92,0.287 -6.68,0.803l-0,38.123Zm3.48,-34.626c0.56,-0.23 1.76,-0.459 3.44,-0.459c3.68,0.057 6.2,2.236 6.2,7.223c-0,4.415 -2.36,7.338 -6.08,7.338l-3.56,0l-0,-14.102Z" style="fill:#676767;fill-rule:nonzero;"/><path d="M460.406,266.237l2.88,12.154l3.72,0l-9.2,-38.639l-4.2,-0l-9.16,38.639l3.6,0l2.8,-12.154l9.56,0Zm-8.84,-3.898l2.64,-11.179c0.52,-2.35 0.96,-4.701 1.36,-6.994l0.08,-0c0.4,2.236 0.8,4.529 1.4,7.051l2.64,11.122l-8.12,0Z" style="fill:#676767;fill-rule:nonzero;"/><path d="M489.772,273.174c-1.4,0.975 -3.56,1.605 -5.68,1.605c-6.56,0 -10.36,-6.076 -10.36,-15.536c-0,-10.147 4.2,-15.937 10.52,-15.937c2.24,-0 4.12,0.688 5.44,1.605l0.84,-4.07c-0.92,-0.688 -3.04,-1.72 -6.4,-1.72c-8.36,-0 -14.08,8.198 -14.08,20.294c-0,12.67 5.72,19.549 13.32,19.549c3.28,0 5.84,-0.917 7.12,-1.834l-0.72,-3.956Z" style="fill:#676767;fill-rule:nonzero;"/><path d="M510.354,256.148l-10.48,-0l0,-12.211l11.08,-0l0,-4.185l-14.56,-0l0,38.639l15.16,0l0,-4.185l-11.68,0l0,-13.931l10.48,0l0,-4.127Z" style="fill:#676767;fill-rule:nonzero;"/><path d="M517.617,278.391l15,0l-0,-4.185l-11.52,0l0,-34.454l-3.48,-0l0,38.639Z" style="fill:#676767;fill-rule:nonzero;"/><path d="M237.045,330.811c1.44,1.376 4.28,2.465 6.88,2.465c6.36,0 9.44,-5.16 9.44,-11.122c0,-5.675 -2.32,-8.828 -6.88,-11.351c-3.72,-2.064 -5.36,-3.841 -5.36,-7.453c0,-2.637 1.4,-5.79 5.08,-5.79c2.44,0 4.24,1.147 5.12,1.835l0.96,-4.071c-1.2,-0.974 -3.2,-1.892 -5.96,-1.892c-5.24,0 -8.72,4.472 -8.72,10.492c0,5.446 2.72,8.714 7.12,10.949c3.64,2.007 5.08,4.071 5.08,7.683c0,3.898 -2.08,6.592 -5.64,6.592c-2.4,0 -4.68,-1.146 -6.24,-2.522l-0.88,4.185Z" style="fill:#676767;fill-rule:nonzero;"/><path d="M260.497,333.333c1.48,0 2.4,-1.548 2.4,-3.611c-0,-2.122 -0.96,-3.612 -2.36,-3.612c-1.4,-0 -2.4,1.49 -2.4,3.612c-0,2.063 0.96,3.611 2.36,3.611Z" style="fill:#676767;fill-rule:nonzero;"/><path d="M282.268,320.549l2.88,12.154l3.72,-0l-9.2,-38.64l-4.2,0l-9.16,38.64l3.6,-0l2.8,-12.154l9.56,0Zm-8.84,-3.898l2.64,-11.179c0.52,-2.351 0.96,-4.701 1.36,-6.995l0.08,0c0.4,2.236 0.8,4.529 1.4,7.052l2.64,11.122l-8.12,-0Z" style="fill:#676767;fill-rule:nonzero;"/><path d="M295.199,333.333c1.48,0 2.4,-1.548 2.4,-3.611c0,-2.122 -0.96,-3.612 -2.36,-3.612c-1.4,-0 -2.4,1.49 -2.4,3.612c0,2.063 0.96,3.611 2.36,3.611Z" style="fill:#676767;fill-rule:nonzero;"/><path d="M311.93,332.588c1.76,0.287 3.84,0.459 6.32,0.459c5.24,-0 9.4,-1.949 11.92,-5.561c2.52,-3.555 3.88,-8.714 3.88,-15.02c0,-6.249 -1.4,-10.721 -3.8,-13.874c-2.36,-3.153 -5.92,-4.816 -10.92,-4.816c-2.76,0 -5.28,0.344 -7.4,0.803l0,38.009Zm3.48,-34.34c0.92,-0.287 2.28,-0.516 4.08,-0.516c7.36,0 10.96,5.79 10.92,14.906c0,10.433 -4.04,16.396 -11.48,16.396c-1.36,-0 -2.64,-0.058 -3.52,-0.287l0,-30.499Z" style="fill:#676767;fill-rule:nonzero;"/><path d="M354.073,310.459l-10.48,0l0,-12.211l11.08,0l-0,-4.185l-14.56,0l0,38.64l15.16,-0l-0,-4.185l-11.68,-0l0,-13.931l10.48,-0l-0,-4.128Z" style="fill:#676767;fill-rule:nonzero;"/><path d="M388.335,327.486c-1.4,0.974 -3.56,1.605 -5.679,1.605c-6.56,-0 -10.36,-6.077 -10.36,-15.536c-0,-10.147 4.2,-15.938 10.52,-15.938c2.239,0 4.119,0.688 5.439,1.606l0.84,-4.071c-0.92,-0.688 -3.04,-1.72 -6.399,-1.72c-8.36,0 -14.08,8.198 -14.08,20.295c-0,12.67 5.72,19.549 13.32,19.549c3.279,0 5.839,-0.917 7.119,-1.835l-0.72,-3.955Z" style="fill:#676767;fill-rule:nonzero;"/><path d="M395.787,333.333c1.48,0 2.4,-1.548 2.4,-3.611c-0,-2.122 -0.96,-3.612 -2.36,-3.612c-1.4,-0 -2.4,1.49 -2.4,3.612c-0,2.063 0.96,3.611 2.36,3.611Z" style="fill:#676767;fill-rule:nonzero;"/><path d="M413.398,332.703l9.64,-38.64l-3.72,0l-4.56,19.091c-1.2,5.045 -2.32,9.917 -3.08,14.389l-0.08,0c-0.72,-4.529 -1.72,-9.23 -2.88,-14.447l-4.2,-19.033l-3.76,0l8.8,38.64l3.84,-0Z" style="fill:#676767;fill-rule:nonzero;"/><path d="M425.187,333.333c1.48,0 2.4,-1.548 2.4,-3.611c-0,-2.122 -0.96,-3.612 -2.36,-3.612c-1.4,-0 -2.4,1.49 -2.4,3.612c-0,2.063 0.96,3.611 2.36,3.611Z" style="fill:#676767;fill-rule:nonzero;"/></g><path d="M564.674,188.055l3.67,-0l-0,-10.186l3.459,-0c3.332,0.105 4.851,1.325 5.695,4.57c0.801,2.93 1.434,4.953 1.898,5.616l3.797,-0c-0.591,-0.907 -1.266,-3.175 -2.194,-6.454c-0.675,-2.441 -1.983,-4.116 -4.176,-4.744l-0,-0.104c2.995,-0.838 5.357,-2.896 5.357,-6c0,-1.814 -0.801,-3.419 -2.236,-4.465c-1.771,-1.326 -4.302,-1.919 -8.226,-1.919c-2.531,0 -5.188,0.174 -7.044,0.488l-0,23.198Zm3.67,-21.07c0.59,-0.139 1.856,-0.279 3.628,-0.279c3.881,0.035 6.538,1.361 6.538,4.396c0,2.686 -2.489,4.465 -6.412,4.465l-3.754,-0l-0,-8.582Z" style="fill:#676767;fill-rule:nonzero;"/><path d="M326.007,0c139.684,0 253.09,45.722 253.09,102.038c0,56.316 -113.406,102.038 -253.09,102.038c-139.684,-0 -253.09,-45.722 -253.09,-102.038c-0,-56.316 113.406,-102.038 253.09,-102.038Zm-0,11.71c-133.482,0 -241.852,40.475 -241.852,90.328c-0,49.853 108.37,90.327 241.852,90.327c133.482,0 241.852,-40.474 241.852,-90.327c0,-49.853 -108.37,-90.328 -241.852,-90.328Z" style="fill:#676767;"/><path d="M572.822,155.474c11.55,0 20.928,9.409 20.928,20.997c-0,11.588 -9.378,20.997 -20.928,20.997c-11.551,-0 -20.929,-9.409 -20.929,-20.997c0,-11.588 9.378,-20.997 20.929,-20.997Zm-0,3.772c-9.476,0 -17.169,7.718 -17.169,17.225c-0,9.507 7.693,17.225 17.169,17.225c9.475,0 17.169,-7.718 17.169,-17.225c-0,-9.507 -7.694,-17.225 -17.169,-17.225Z" style="fill:#676767;"/><path d="M217.113,142.981c-20.023,0 -27.273,-33.857 -33.765,-33.857l-3.292,0c-0.925,0 -1.812,0.369 -2.467,1.026c-0.654,0.656 -1.022,1.546 -1.022,2.475l0,12.158c0,4.411 -1.746,8.641 -4.855,11.76c-3.109,3.119 -7.326,4.872 -11.722,4.872l-20.03,-0c-3.217,-0 -5.825,-2.617 -5.825,-5.845l0,-0.166c0,-3.228 2.608,-5.844 5.825,-5.844l8.887,-0c1.824,-0 3.574,-0.727 4.864,-2.021c1.29,-1.295 2.015,-3.05 2.015,-4.88l-0,-48.363c-0,-0.636 -0.252,-1.246 -0.7,-1.696c-0.448,-0.449 -1.056,-0.702 -1.69,-0.702l-4.024,0c-1.093,0 -2.141,-0.435 -2.914,-1.211c-0.773,-0.775 -1.207,-1.826 -1.207,-2.923l0,-0.097c0,-1.096 0.434,-2.148 1.207,-2.923c0.773,-0.775 1.821,-1.211 2.914,-1.211l53.605,0c23.939,0 40.279,31.788 4.67,45.591c6.355,5.547 9.797,22.002 15.672,22.002l288.553,0c3.208,0 5.809,2.61 5.809,5.828c0,0.067 0,0.133 0,0.199c0,3.219 -2.601,5.828 -5.809,5.828c-41.771,0 -294.699,0 -294.699,0Zm-20.8,-71.083l-17.39,0c-1.301,0 -2.356,1.058 -2.356,2.363l0,24.007c0,0.661 0.262,1.295 0.728,1.762c0.465,0.467 1.097,0.729 1.756,0.729l17.028,0c12.302,0 17.322,-28.861 0.234,-28.861Z" style="fill:#676767;"/><path d="M260.377,107.439c-0.234,0.508 -0.193,1.099 0.107,1.57c0.3,0.471 0.819,0.755 1.376,0.755c-0,0 0,0 0.001,0c1.087,0 2.129,0.434 2.898,1.205c0.769,0.771 1.201,1.817 1.201,2.908l-0,0.127c-0,1.094 -0.433,2.143 -1.205,2.917c-0.771,0.774 -1.817,1.208 -2.907,1.208c-7.251,0 -22.225,0 -29.462,0c-2.261,0 -4.093,-1.838 -4.093,-4.106c-0,-0.051 -0,-0.101 -0,-0.152c-0,-2.268 1.832,-4.107 4.093,-4.107l3.817,0c1.493,0 2.873,-0.795 3.626,-2.089c4.216,-7.252 17.96,-30.889 17.96,-30.889c0.585,-1.005 0.589,-2.247 0.011,-3.257c-0.578,-1.009 -1.649,-1.631 -2.809,-1.631l-0.645,0c-1.048,0 -2.054,-0.418 -2.795,-1.162c-0.742,-0.744 -1.158,-1.753 -1.158,-2.805l-0,-0.365c-0,-1.07 0.423,-2.095 1.177,-2.852c0.754,-0.756 1.776,-1.181 2.842,-1.181l29.479,0c1.106,0 2.166,0.441 2.948,1.225c0.781,0.784 1.221,1.848 1.221,2.957l-0,0.246c-0,1.044 -0.414,2.045 -1.15,2.784c-0.736,0.738 -1.734,1.153 -2.775,1.153l-0.005,0c-0.905,0 -1.742,0.481 -2.201,1.263c-0.459,0.782 -0.47,1.75 -0.031,2.544c0,-0 14.046,25.349 17.903,32.31c0.599,1.08 1.734,1.749 2.965,1.749c0.319,0 0.659,0 1.006,0c1.103,0 2.161,0.44 2.94,1.222c0.78,0.782 1.218,1.843 1.218,2.949c-0,0.008 -0,0.016 -0,0.023c-0,1.107 -0.438,2.167 -1.218,2.95c-0.779,0.782 -1.837,1.221 -2.94,1.221c-4.91,0 -13.02,0 -17.868,0c-2.217,0 -4.015,-1.803 -4.015,-4.028l-0,-0.308c-0,-1.068 0.423,-2.093 1.176,-2.849c0.753,-0.755 1.774,-1.18 2.839,-1.18c0.409,0 0.818,0 1.211,0c0.612,0 1.179,-0.318 1.5,-0.84c0.321,-0.522 0.349,-1.174 0.074,-1.722c-0.775,-1.544 -1.715,-3.417 -2.264,-4.512c-0.284,-0.565 -0.861,-0.922 -1.491,-0.922c-3.884,-0 -17.613,-0 -21.124,-0c-0.502,-0 -0.958,0.292 -1.168,0.749c-0.513,1.114 -1.498,3.255 -2.265,4.922Zm19.274,-14.036c0.452,-0 0.872,-0.235 1.109,-0.621c0.238,-0.387 0.258,-0.868 0.055,-1.274c-1.48,-2.949 -4.167,-8.305 -4.167,-8.305c-0.494,-0.985 -1.507,-1.599 -2.606,-1.581c-1.099,0.019 -2.09,0.667 -2.551,1.668c0,0 -2.457,5.339 -3.801,8.258c-0.186,0.405 -0.154,0.877 0.086,1.252c0.239,0.376 0.653,0.603 1.097,0.603c2.826,-0 7.912,-0 10.778,-0Z" style="fill:#676767;"/><path d="M400.646,107.292c-0,1.685 1.361,3.052 3.041,3.052l13.061,-0c0.504,-0 0.997,-0.144 1.423,-0.415c1.992,-1.267 8.192,-5.211 13.539,-8.612c0.753,-0.479 1.739,-0.348 2.342,0.311c0.602,0.659 0.648,1.657 0.107,2.368c-3.937,5.181 -8.61,11.33 -10.417,13.706c-0.482,0.634 -1.231,1.007 -2.026,1.007c-6.347,-0 -34.894,-0 -45.479,-0c-2.19,-0 -3.966,-1.782 -3.966,-3.979c0,-0.136 0,-0.272 0,-0.408c0,-1.055 0.418,-2.067 1.162,-2.813c0.743,-0.746 1.752,-1.165 2.804,-1.165c0.89,-0 1.831,-0 2.711,-0c0.987,-0 1.933,-0.394 2.631,-1.093c0.697,-0.7 1.089,-1.65 1.089,-2.639c0,-7.417 0,-23.918 0,-31.174c0,-0.939 -0.372,-1.839 -1.033,-2.503c-0.662,-0.664 -1.559,-1.037 -2.495,-1.037c-0.412,0 -0.836,0 -1.255,0c-1.106,0 -2.166,-0.44 -2.948,-1.225c-0.782,-0.784 -1.221,-1.848 -1.221,-2.957c0,-0 0,-0 0,-0.001c0,-1.109 0.439,-2.173 1.221,-2.957c0.782,-0.784 1.842,-1.225 2.948,-1.225c10.352,0 36.944,0 44.525,0c1.261,0 2.423,0.688 3.032,1.797c1.513,2.751 4.512,8.205 7.201,13.095c0.57,1.037 0.349,2.332 -0.532,3.119c-0.881,0.788 -2.188,0.86 -3.149,0.173c-4.592,-3.282 -9.716,-6.943 -12.21,-8.725c-0.995,-0.712 -2.187,-1.094 -3.409,-1.094c-1.279,0 -3.068,0 -4.899,0c-4.307,0 -7.798,3.503 -7.798,7.824l-0,6.36c-0,1.564 1.264,2.833 2.823,2.833c1.354,-0 2.899,-0 3.918,-0c0.723,-0 1.42,-0.274 1.95,-0.767c1.18,-1.097 3.47,-3.227 5.842,-5.432c0.722,-0.671 1.817,-0.735 2.611,-0.151c0.794,0.584 1.063,1.651 0.642,2.543c-2.503,5.31 -5.532,11.739 -7.706,16.35c-0.438,0.929 -1.408,1.484 -2.428,1.388c-1.02,-0.096 -1.87,-0.822 -2.128,-1.817c-0.16,-0.617 -0.328,-1.262 -0.5,-1.927c-0.324,-1.248 -1.521,-2.059 -2.795,-1.896c-1.275,0.164 -2.229,1.252 -2.229,2.541c-0,2.935 -0,5.615 -0,7.545Z" style="fill:#676767;"/><path d="M465.062,108.111c0,0.592 0.235,1.16 0.652,1.579c0.417,0.418 0.983,0.654 1.574,0.654c3.144,-0 8.788,-0 11.326,-0c0.841,-0 1.655,-0.29 2.308,-0.821c1.686,-1.37 5.312,-4.318 9.576,-7.785c1.159,-0.942 2.841,-0.845 3.885,0.223c1.043,1.069 1.106,2.758 0.144,3.901c-4.192,4.98 -7.893,9.377 -9.679,11.499c-0.719,0.855 -1.777,1.348 -2.892,1.348c-6.785,-0 -31.374,-0 -41.168,-0c-2.246,-0 -4.066,-1.827 -4.066,-4.079c-0,-0.069 -0,-0.138 -0,-0.207c-0,-2.253 1.82,-4.079 4.066,-4.079c1.064,-0 2.194,-0 3.199,-0c1.711,-0 3.098,-1.392 3.098,-3.108c-0,-6.893 -0,-23.464 -0,-31.213c-0,-2.278 -1.841,-4.125 -4.112,-4.125c-0.176,0 -0.352,0 -0.528,0c-2.256,0 -4.085,-1.835 -4.085,-4.098c-0,-0.056 -0,-0.112 -0,-0.169c-0,-2.263 1.829,-4.098 4.085,-4.098c6.645,0 19.728,0 26.428,0c1.105,0 2.165,0.441 2.947,1.225c0.782,0.784 1.221,1.848 1.221,2.957c0,0.076 0,0.152 0,0.227c0,2.185 -1.765,3.956 -3.943,3.956c-0.001,0 -0.002,0 -0.003,0c-2.227,0 -4.033,1.812 -4.033,4.046c0,8.063 0,25.897 0,32.167Z" style="fill:#676767;"/><path d="M360.138,66.739c-0,-0 -8.614,-3.206 -19.554,-3.206c-21.741,0 -31.663,13.562 -31.663,27.588c0,23.02 21.087,28.593 31.663,28.593c13.642,0 21.816,-7.367 26.436,-14.091c0.745,-1.113 0.63,-2.595 -0.279,-3.579c-0.909,-0.985 -2.373,-1.213 -3.536,-0.552c-6.063,4.135 -14.059,8.563 -20.115,8.563c-12.147,-0 -17.212,-11.706 -17.212,-18.106c0,-6.401 2.489,-20.297 17.212,-20.297c9.629,-0 17.361,7.541 21.827,13.236c0.417,0.505 1.124,0.657 1.709,0.368c0.586,-0.29 0.898,-0.944 0.753,-1.583c-1.111,-5.231 -2.695,-12.239 -3.964,-17.852c-0.176,-0.776 -0.885,-1.312 -1.677,-1.266c-0.791,0.045 -1.435,0.659 -1.52,1.45c-0.05,0.459 -0.08,0.734 -0.08,0.734Z" style="fill:#676767;"/></g></g></svg>